<?xml version="1.0" encoding="utf-8"?>
<!-- Generator: Adobe Illustrator 18.1.0, SVG Export Plug-In . SVG Version: 6.00 Build 0)  -->
<!DOCTYPE svg PUBLIC "-//W3C//DTD SVG 1.1//EN" "http://www.w3.org/Graphics/SVG/1.1/DTD/svg11.dtd">
<svg version="1.1" id="Layer_1" xmlns="http://www.w3.org/2000/svg" xmlns:xlink="http://www.w3.org/1999/xlink" x="0px" y="0px"
	 viewBox="0 0 726.2 250" enable-background="new 0 0 726.2 250" xml:space="preserve">
<g>
	<g>
		<defs>
			<rect id="SVGID_1_" x="0.2" y="0.1" width="725.9" height="249.9"/>
		</defs>
		<clipPath id="SVGID_2_">
			<use xlink:href="#SVGID_1_"  overflow="visible"/>
		</clipPath>
		<path clip-path="url(#SVGID_2_)" fill="#FFC600" d="M169.1,167.7c-0.8-1-5.7-7.6-6.6-16.8c0.5-1.3,0.9-2,1.8-3.9
			c1.5,9.6,5.6,14.8,8.6,17.6c0.8,0.6,1.4,1,1.6,1.3c0.3,0.3-0.7,1-1.6,1.5c-0.9,0.5-2.6,1.1-3.1,0.8
			C169.6,168.1,169.4,168,169.1,167.7L169.1,167.7z"/>
		<path clip-path="url(#SVGID_2_)" fill="#83256E" d="M139.6,167.7c2.4,0,5-0.7,8.4-2.6c8.9-5,11.2-14.7,11.6-15.8
			c0.4-1.1,1.6,9.3-7.9,17.8c-7.6,6.8-15,5.6-20.5,4.2c-3.5-0.8-6.7-1-11.7,1.3c-8.6,3.9-20.5,22.6-30.4,27.9
			c-9.9,5.3-23.4,0.7-27.4-0.5c-4-1.2-21.4-8.9-35.8-9.4c-14.4-0.5-25.9,5.8-25.9,5.8s2.7-6.5,13.9-9.7c11.9-3.4,19.8-1.4,21.4-1
			c-1.3-0.7-4.1-1.9-8.6-2.5c-8.1-1.2-13.2,0.3-13.2,0.3s4.9-3.1,15.9-3.9c0.9-0.1,3.7-0.2,4.5-0.1c5.4,0,10.1,0.7,12.9,1.2l1.6,0.3
			c0,0-5.7-5.4-0.3-6.6c5.4-1.1,11.3,1.8,11.3,1.8s-1.8-4.9,3.3-5.5c5.1-0.6,9.2,2.7,9.2,2.7s0.3-2.3,3.3-3c3-0.7,5.8,1.4,5.8,1.4
			s-0.3-2.1,3.7-2.6c4-0.5,4,1.9,4,1.9s-0.1-3.1,3.6-4c3.6-0.9,5.2,1.1,5.2,1.1s0.1-2.2,3.4-3.3c3.3-1.1,4.7,0.5,4.7,0.5
			s-1.7-1.7,1.7-3.3c3.4-1.6,5.9,0.5,5.9,0.5s0.1-1.4-1.8-2.5c-1.5-0.9-3.7-0.8-5.6,0c-2.3,1-2.3,2.9-2.3,2.9s-2.3-1.2-4.7-0.3
			c-2.7,1-3.4,3.2-3.4,3.2s-2-1.5-4.8-0.9c-2.9,0.7-3,3.3-3,3.3s-0.9-1.8-4.9-1.3l-0.4,0.1c-2.2-1.4-3.9-2.8-5-3.9
			c-7.5-7.3-12.6-16.3-15.8-26.2c-3.1-9.6-3.7-19.4-3.3-29.4c0.5-13.7-2.1-28.5-9.3-40.3c-5.7-9.5-14.2-16.4-25.1-19.9
			c-2.8-0.9-5.8-1.4-8.7-1.5c-2.9-0.2-6.3-0.4-9.2,0.1C5.3,45.9,4.6,46,4,46.2c-0.9,0.2-1.1,0-0.1-0.4c7.6-3.2,22.9-3.8,35.4,2.6
			C51.3,54.6,56.8,63,61.4,72.9c3-12.3,11.8-31.4,38.2-38.7c12.8-3.5,25.1,0,32.3,3c1.2,0.5,1,0.7-0.2,0.4l-1-0.3
			c-27.2-6.5-54.7,10.3-61.5,37.5c-6.8,27.2,10.6,55.1,38.2,59.3c14.4,2.2,14,9.4,12.9,12.2c-1.4,3.4-0.6,6.6,0.4,7.9
			c2,2.4,4.1,3.3,3.3,1.7c-0.8-1.6-1.6-3.1-1.4-5.3c0.2-2.3,0.9-5,4.7-9.2c3.8-4.2,12-8.5,22-5.5c4.2,1.3,6.6,3.3,8.1,5.4l5.2-0.8
			c2.2-0.4,2.1,0.6,1.5,1.8c-0.6,1.2-4.7,6.4-4.6,5.8c0.2-1.1,0.1-2.3-0.4-3.3c-1.6-4-7.1-5.4-12.3-3.3c-5.2,2.1-8.1,7.1-6.5,11
			c1.2,2.9,4.3,4.4,8,4.3c-1.2,2-4.4,7.1-8.9,9.7C138.8,166.8,138.6,167.7,139.6,167.7L139.6,167.7z"/>
	</g>
	<path fill="#FD9A2B" d="M189.5,204.1c0,0-2,0.8-4.1,2c-3,1.6-6,3.4-6,3.4s4.4,1.9,7.5,0.4C189.7,208.4,189.5,204.1,189.5,204.1
		L189.5,204.1z"/>
	<path fill="#FFC600" d="M176.3,87c1-4.8-6.3-13.1-12.1-13.3C165.5,78.4,170.2,84.2,176.3,87L176.3,87z"/>
	<path fill="#83256E" d="M85.3,71.9c0.9,2,2.8,5.8,5,8.9c4.3,6.1,9,12.6,6.4,12.5c-3.9-0.2-1.7,4.9-0.2,6.6c1.4,1.7,5.7,5.2,5.7,5.2
		s-3.1-0.1-1.9,3c0.9,2.6,6.1,5.1,7.7,5.8c-0.6-0.2-1.7-0.3-2.7,0.9c-1.5,1.8,3.5,5,3.5,5s-3.5,0.9-6.7,4.1c-2,2-3.4,5.3,4.5,6.3
		c13,1.6,16.3,7.2,16.3,7.2s12.3-11.7,11.7-20.2c-0.6-8.5-12.7-20.1-18.7-25.5c-6-5.4-16.7-17.3-22.2-26.7
		c-5.5-9.4-4.1-15.9-4.1-15.9s-2.7,4.5-1.6,13.4c0.8,6.7,4.8,13.1,4.8,13.1s-7-8.6-9.1-15.3C82.3,55.5,82.2,65.1,85.3,71.9
		L85.3,71.9z"/>
	<path fill="#9185BE" d="M54.8,107.1c-0.2,0.1-0.3,0.6-0.3,0.6c-2.7,7.1-8.7,35.3,11.2,56.2c0.5,0.5,2,1.9,3.5,3.3
		c1.6,1.4,2.8,1.6,3.3,1.5c1-0.2,3-0.5,1.9-1.7c-1.8-1.3-3.3-2.6-4.2-3.6c-19.5-20.5-16.2-49.4-15.1-56.2
		C55.1,107.2,55,106.9,54.8,107.1L54.8,107.1z"/>
	<path fill="#9185BE" d="M120.6,180.2c0,0,0.9-1.8,3.2-3.8c2-1.7,5.2-2.5,5.2-2.5s-5.1-0.7-9.8,3c-4.7,3.7-10.6,12.8-18.2,22.1
		c-8.6,10.5-23.6,11-31.6,7.9c-8-3.1-21.1-8.5-32.4-11.8c-18.2-5.4-31.6,1.5-31.6,1.5s11.1-4.1,24.2-0.4c11.8,3.3,35.4,15.7,45.4,18
		c8.4,1.9,19.8,0.7,26.5-5.4c7.7-7,16.5-24.2,16.6-24.1C118.8,183.4,120.6,180.2,120.6,180.2L120.6,180.2z"/>
	<path fill="#FFC600" d="M169.9,57.9c-0.8,6-1.1,12,4.1,17.8C176,69.9,175.1,62.2,169.9,57.9L169.9,57.9z"/>
	<path fill="#FD9A2B" d="M176.8,181.3c0,0,2.6-1.9,5.4-2.5c-2.9-0.7-8-1.8-11.3-1.8C172.7,178.4,176.8,181.3,176.8,181.3
		L176.8,181.3z"/>
	<path fill="#FD9A2B" d="M188.6,180.8l-0.2-0.1c2.5,2,2.4,5.3,2.4,5.3s5,1.4,8.8,2.1c1.2,0.2-0.9,0.5-3.1,0.6
		c-4,0.1-12.8-1.1-18.3-3.6c-4-1.9-8.3-5.5-10.3-7.3c-2.6-0.3-6.4,0.6-9.7,1.8c-12.3,4.4-17.1,8.4-21.4,10l-0.8,0.3
		c1.6,1.6,0.4,3.4-0.2,4.8c0.2-1.7,0-3.9-2.6-5c-2.1-0.9-4.6-0.9-6,1.2c-0.3,0.4-0.7,1.1-1.1,1.9c-0.3-0.7-0.9-1.3-1.8-1.8
		c-2-1.1-5.3-1.7-6.9,0.2c-1.6,1.9-5.6,9.2-6.4,10.7c-1.7,3.2-1.3,6.4-0.2,9.1c0.4,1,1.1,2,2,2.7c0.2,0.2,0.3,0.3,0.5,0.3
		c1.7,1.1,3-0.1,3.9-1.4c0.3-0.4,1.4-2.2,2.8-4.6c0.3-0.5,0.9-0.5,1,0c0.1,1,0.4,2,0.9,2.9c0.5,0.9,1.3,1.9,2.3,2.5
		c0.3,0.2,0.4,0.2,0.5,0.3c1.2,0.6,2.7,0.4,3.3-0.3c0.4-0.4,0.7-0.9,1-1.4c0.1-0.2,0.8-1.8,3.6-1.2c6.3,1.3,21.7,3.5,25.3,3.1
		l0.7-0.1c1.2-0.1,2.8-0.5,4.5-0.8c3.2-0.9,7.2-2,10.3-3.5c5.9-2.8,10.8-5.6,19.5-9.3c1.5-0.6,4.4-2.1,5.7-2.5c0,0,0.5-0.2,0.7,0
		c0.2,0.2-0.2,0.6-0.3,0.7c-1.7,1-4.9,3.1-7,4.6c0.1,0.5,0.3,1.6-0.1,2.7c2.7-1.8,5.3-3.7,6.7-4.8c2.7-2.1,5.2-4.4,5.4-6.7
		c0.2-2.3,0.1-4.9-1.3-6.6C201.4,185.9,197.1,184,188.6,180.8L188.6,180.8z"/>
	<path fill="#FD9A2B" d="M188.1,185.5c0,0,0.3-3.5-2.7-4.7c-3.1-1.3-6.6,1.7-6.6,1.7s1.5,1,4.8,2C186,185.1,188.1,185.5,188.1,185.5
		L188.1,185.5z"/>
	<path fill="#FD9A2B" d="M173.9,211.7c-1.4,0.5-3.2,1.1-5,1.7c-2.5,0.8-5.4,1-5.4,1s5.8,1.2,11.1-0.5c3.3-1.1,5-1.7,5-1.7
		c-1.7-0.1-3-0.8-3.7-1.3C175.5,211.1,174.8,211.4,173.9,211.7L173.9,211.7z"/>
	<path fill="#FD9A2B" d="M57.1,160.4c-0.5-0.3-1.8-0.6-2.8-0.6c0,0-2.6,0.2-4.8,0.5c0.9-0.9,1.6-1.9,1.9-2.9
		c0.5-1.6,0.3-3.7-1.1-5.3c-0.4-0.4-1.3-0.8-1.8-0.8c0,0-2,0.1-3.9,0.2c0.9-0.7,1.6-1.6,2-2.6c0.7-1.6,0.7-3.6-0.5-5.4
		c-0.3-0.5-1.2-0.9-1.7-1c0,0-2.1-0.1-4-0.2c0.6-0.6,1.2-1.2,1.6-1.9c0.8-1.5,1-3.6-0.1-5.4c-0.3-0.5-1.1-1-1.6-1.1l-2.5-0.3
		c0.4-0.3,0.7-0.7,1-1.1c1-1.4,1.4-3.4,0.6-5.4c-0.2-0.5-1-1.2-1.5-1.3c0,0-1.6-0.4-3.3-0.8c0.8-0.4,1.4-1,1.9-1.6
		c1.1-1.3,1.6-3.3,0.9-5.3c-0.2-0.5-0.9-1.2-1.4-1.4l-2.2-0.7c0.5-0.3,0.9-0.6,1.3-0.9c1.2-1.2,2-3.1,1.6-5.1
		c-0.1-0.6-0.7-1.3-1.2-1.6c0,0-1.4-0.7-2.9-1.4c0.7-0.3,1.4-0.6,2-1.1c1.3-1.1,2.3-2.9,2-5c-0.1-0.6-0.6-1.4-1.1-1.6l-1.7-1
		c0.7-0.2,1.3-0.6,1.9-1c1.4-1,2.4-2.8,2.1-4.9c-0.1-0.6-0.6-1.4-1-1.7l-1.1-0.7c0.5-0.2,1-0.4,1.5-0.7c1.4-0.9,2.5-2.7,2.5-4.8
		c0-0.6-0.5-1.4-0.9-1.8L37.4,82c0.8-0.1,1.6-0.4,2.3-0.8c1.5-0.9,2.7-2.5,2.7-4.6c0-0.6-0.4-1.5-0.8-1.8l-2-1.6
		c1.2,0,2.4-0.2,3.4-0.7c0.5-0.3,1-0.6,1.5-1.1c2.9-4.6-9.1-18.3-18.7-17.9c-0.6,0.1-1.2,0.3-1.7,0.5c-0.9,0.4-1.9,1.2-2.6,2.3
		c-0.2,0.3-0.3,0.4-0.3,0.6c-1.1,2,0,3.5,1.2,4.7c0.2,0.2,0.9,0.8,1.8,1.6c-1.6-0.3-3.1-0.1-4.3,0.6c-0.9,0.5-1.8,1.3-2.5,2.4
		c-0.2,0.3-0.2,0.4-0.3,0.6c-1,2.1,0.2,3.5,1.4,4.7c0.1,0.1,0.5,0.4,0.9,0.8c-1.1,0-2.2,0.3-3.1,0.9c-0.9,0.5-1.7,1.4-2.3,2.5
		c-0.1,0.3-0.2,0.4-0.3,0.6c-0.8,2.1,0.4,3.5,1.7,4.6c0.2,0.1,0.5,0.4,1,0.7c-1,0.2-1.9,0.5-2.7,1.1c-0.8,0.6-1.6,1.5-2.1,2.7
		c-0.1,0.3-0.2,0.4-0.2,0.6c-0.7,2.2,0.6,3.5,2,4.5c0.2,0.1,0.5,0.3,1,0.6c-0.8,0.2-1.5,0.6-2.1,1c-0.8,0.6-1.6,1.6-2,2.7
		c-0.1,0.3-0.2,0.4-0.2,0.6c-0.6,2.2,0.7,3.4,2.1,4.4c0.3,0.2,1.3,0.8,2.8,1.6c-1.2,0.2-2.3,0.7-3.1,1.5c-0.8,0.7-1.5,1.7-1.9,2.9
		c-0.1,0.3-0.1,0.5-0.2,0.6c-0.5,2.2,1,3.4,2.5,4.2c0.4,0.2,1.8,0.9,3.7,1.7c-1.7,0.3-3.2,1-4.2,2.2c-0.6,0.8-1.2,1.8-1.4,3.1
		c0,0.3-0.1,0.5-0.1,0.6c-0.1,2.3,1.4,3.2,3,3.9c0.3,0.1,1.4,0.5,2.8,0.9c-1,0.4-1.9,1.1-2.6,1.9c-0.6,0.8-1.1,1.9-1.3,3.2
		c0,0.3,0,0.5,0,0.6c0,2.3,1.6,3.1,3.2,3.7c0.4,0.1,1.8,0.5,3.6,0.9c-1.4,0.6-2.5,1.5-3.2,2.7c-0.5,0.9-0.9,2-0.9,3.3
		c0,0.3,0,0.5,0,0.6c0.3,2.3,2,2.9,3.6,3.3c0.5,0.1,2.2,0.3,4.4,0.5c-1.3,0.7-2.3,1.7-2.9,2.9c-0.4,0.9-0.7,2.1-0.6,3.4
		c0,0.3,0.1,0.5,0.1,0.6c0.5,2.2,2.2,2.7,3.9,2.9c0.5,0.1,2.6,0.1,5.3,0.2c-2,0.9-3.4,2.3-4.1,4c-0.3,0.9-0.5,2.2-0.2,3.4
		c0.1,0.3,0.1,0.5,0.2,0.6c0.7,2.2,2.5,2.5,4.2,2.5c0.5,0,2-0.1,4.1-0.3c-0.5,0.5-0.9,1.1-1.2,1.8c-0.4,0.9-0.6,2.1-0.4,3.4
		c0.1,0.3,0.1,0.5,0.1,0.6l0.2,0.5c0.1,0.3,0.1,0.5,0.2,0.6c0.4,1.1,1,1.7,1.8,2c1.2,0.1,1.7-0.2,3.3-0.4c0.7,0,12-1.7,13.5-2.2
		c0,0,0,0,0,0c2.7-0.4,5.5-1.3,6.7-2.4c1-0.9,1.8-2.4,2-3C59.4,164.4,59.9,162.5,57.1,160.4L57.1,160.4z"/>
	<path fill="#FFC600" d="M150.7,44.9c-0.2,4.5,2.7,13,8.1,15.9C159.2,55.9,156.7,46.2,150.7,44.9L150.7,44.9z"/>
	<path fill="#9185BE" d="M148.4,145.1c-1.5,0.6-2.2,2.3-1.6,3.8c0.6,1.5,2.3,2.2,3.8,1.6c1.5-0.6,2.2-2.3,1.6-3.8
		C151.6,145.1,149.9,144.4,148.4,145.1L148.4,145.1z"/>
	<path fill="#FFC600" d="M128.4,43.3c3.3,6.2,7.8,8.7,13.3,8.6C138.2,46.3,133.6,43.9,128.4,43.3L128.4,43.3z"/>
	<path fill="#FFC600" d="M126,57.9c5.2,1.4,9.9,0.3,13.8-3.7C134.5,52.4,129.9,53.7,126,57.9L126,57.9z"/>
	<path fill="#FFC600" d="M137.3,59.9c5.5,3.1,10.9,3.2,16.2-0.1C148,56.4,142.6,56.5,137.3,59.9L137.3,59.9z"/>
	<path fill="#FFC600" d="M140.2,43.1c-0.5,4.4,6,11.2,9.7,12C150.1,50.6,144.1,43.9,140.2,43.1L140.2,43.1z"/>
	<path fill="#FFC600" d="M115.9,45.6c2,4.4,10.9,6.7,14.4,5.1C128.1,46.5,119.6,44,115.9,45.6L115.9,45.6z"/>
	<path fill="#FFC600" d="M161.6,138.4l1.5-0.3c0.5-0.1,0.9-0.1,1.1-0.1c0.5-1.6,1.3-3.3,2.4-5c1.4-2.3,2.5-2.8,2.5-2.9
		c6-2.9,17.2-6.3,18.4-14c-6.8-0.6-15,4-19.8,13.4c-1.6,1.6-3.9,4.1-5.2,6.8C162.1,137,161.9,137.7,161.6,138.4L161.6,138.4z"/>
	<path fill="#9185BE" d="M100.4,66.5c-7.8-10.3-7.7-19-7.7-19s-3.3,9,7.9,24c10.4,14,31.3,28.6,35.5,35.9c5.2,9.1,2.6,14.5-0.3,19.6
		c-2.9,5.1-5.7,7.1-7.4,9c-1.7,1.8,9.3-2.5,14.4-9.6c5.1-7.1,3.7-16.7-1.4-22.1C136.3,99,108.8,77.6,100.4,66.5L100.4,66.5z"/>
	<path fill="#FFC600" d="M125.1,53.6c-5.9-1.5-10.6,0.1-14.4,3.7C116.9,59.5,121.5,57.9,125.1,53.6L125.1,53.6z"/>
	<path fill="#FFC600" d="M189.9,89.4c-5.7,3.3-11.1,11.5-9.9,17C185.5,102.8,192.1,95.1,189.9,89.4L189.9,89.4z"/>
	<path fill="#FFC600" d="M160.5,48.6c-0.2,5.8,0.4,11.7,5.8,17.4C168,60.4,166.9,52.8,160.5,48.6L160.5,48.6z"/>
	<path fill="#FFC600" d="M175.1,116.8c4.9-0.2,13.7-7.2,14-13.6C184.3,103.6,176.6,110.7,175.1,116.8L175.1,116.8z"/>
	<path fill="#FFC600" d="M169.6,102.5c-2.8,7-3.5,13.7,0.1,19.9C173.2,115.7,174.7,107,169.6,102.5L169.6,102.5z"/>
	<path fill="#FFC600" d="M179.6,97.1c4.6-4.2,6.9-11.8,4.5-17.9C179.1,84.8,178.3,90.9,179.6,97.1L179.6,97.1z"/>
	<path fill="#FFC600" d="M150.7,64.4c5.5,6,10.9,7.6,16,5.7C161.2,64.3,155.9,63,150.7,64.4L150.7,64.4z"/>
	<path fill="#FFC600" d="M178.4,83.2c4.4-5.6,5.6-13.3,1.9-17.8C177.5,71.2,175.5,77.1,178.4,83.2L178.4,83.2z"/>
	<g>
		<defs>
			<rect id="SVGID_3_" x="0.2" y="0.1" width="725.9" height="249.9"/>
		</defs>
		<clipPath id="SVGID_4_">
			<use xlink:href="#SVGID_3_"  overflow="visible"/>
		</clipPath>
		<path clip-path="url(#SVGID_4_)" fill="#FFC600" d="M171.6,87.9c-0.3,6.2-0.1,14.5,6.3,19.3C178.4,101,178,92.7,171.6,87.9
			L171.6,87.9z"/>
		<path clip-path="url(#SVGID_4_)" fill="#FD9A2B" d="M52.4,52.4c3.1,1,6.9,0.2,8.1-3.2c0.2-0.5,0.1-1.5-0.2-2l-0.7-1.1
			c1.3,0.5,2.6,0.6,3.8,0.4c1.7-0.3,3.4-1.5,4.1-3.4c0.2-0.5,0.1-1.5-0.2-2l-0.5-0.8c1.4,0.6,2.8,0.9,4.1,0.8
			c1.7-0.2,3.5-1.3,4.3-3.2c0.2-0.4,0.2-1.2,0-1.8c1,0.4,2,0.5,3,0.5c1.7-0.1,3.5-1.1,4.5-3c0.3-0.5,0.3-1.5,0-2l-0.2-0.3
			c1.3,0.8,2.8,1.2,4.2,1.1c1.7-0.1,3.5-1,4.5-2.9c0.2-0.3,0.3-0.9,0.2-1.4c1.3,0.8,2.7,1.2,4.1,1.2c1.7,0,3.6-0.9,4.6-2.7
			c0.1-0.2,0.2-0.6,0.3-1c1.4,0.9,2.9,1.4,4.4,1.4c1.7,0,3.6-0.9,4.6-2.7c0.1-0.2,0.2-0.4,0.2-0.7c1.6,1.3,3.5,2.2,5.4,2.2
			c1.7,0,3.6-0.9,4.6-2.7c0-0.1,0.1-0.2,0.1-0.3c1.6,1.4,3.7,2.4,5.6,2.3c1.6,0,3.3-0.8,4.4-2.3c1.7,1.9,4.1,3.2,6.3,3.1
			c1.4,0,2.9-0.6,4-1.7c1.6,2.2,4,3.9,6.4,4c1.1,0.1,2.3-0.2,3.3-0.8c1.3,2.4,3.6,4.2,5.9,4.6c1,0.2,2.2,0.1,3.2-0.4
			c1.1,2.4,3,4.4,5.2,5.1c1,0.3,2.2,0.3,3.3,0l0,0.3c0.7,2.6,2.4,5,4.6,6c1,0.5,2.3,0.6,3.5,0.3l-0.1,1.3c0.5,2.7,2.1,5.2,4.2,6.3
			c1.1,0.6,2.5,0.8,3.9,0.5l-0.1,1c0.3,2.7,1.6,5.3,3.6,6.6c1.1,0.7,2.6,1.1,4.1,0.8c-0.2,0.8-0.3,1.7-0.4,2.4
			c0.2,2.7,1.4,5.4,3.4,6.7c0.6,0.4,1.2,0.7,1.9,0.8l-0.4,1.3c-0.2,2.7,0.6,5.5,2.3,7.2c0.7,0.7,1.7,1.2,2.9,1.4
			c-0.4,0.7-0.8,1.5-1.2,2.1c-0.8,2.6-0.5,5.5,0.9,7.5c0.8,1.2,2.2,2.1,3.8,2.3c-0.7,0.8-1.3,1.6-1.8,2.3c-1.1,2.5-1.3,5.4-0.2,7.5
			c0.6,1.2,1.7,2.2,3.2,2.7l-1.2,1.1c-1.5,2.3-2.1,5.2-1.4,7.4c0.5,1.5,1.8,3,3.7,3.5c-1.1,0.9-2.2,1.7-3.1,2.5
			c-1.6,2.2-2.4,5-1.9,7.3c0.3,1.2,1.1,2.5,2.4,3.3c-1.3,0.7-2.6,1.4-3.6,2c-2,1.9-3.3,4.6-3.1,7.1c0.1,1.6,1,3.3,2.5,4.4
			c-1.2,0.5-2.4,1-3.4,1.4c-2.2,1.6-3.8,4.1-3.9,6.4c-0.1,1.5,0.5,3.1,1.8,4.3c-1.1,0.2-2.2,0.5-3.1,0.7c-2.3,1.2-4.3,3.3-4.9,5.6
			c-0.4,1.3-0.3,2.9,0.5,4.2c-1.3,0.1-2.6,0.2-3.6,0.3c-2.5,0.9-4.7,2.7-5.6,4.9c-0.5,1.3-0.6,3,0,4.4c1.6,1.3,4.9,1.5,7.1,1.5
			l0.2,0c3.5-0.2,7.9-0.4,9.9-0.6c3.3-0.4,6.2-2.1,7.3-4.6c0.4-0.9,0.6-2.1,0.5-3.4c0-0.3-0.1-0.5-0.1-0.6c-0.3-1.3-1-2-1.8-2.3
			c1.4-0.3,2.6-0.5,3.4-0.7c3.3-0.8,5.9-2.8,6.7-5.5c0.3-1,0.4-2.2,0.1-3.4c-0.1-0.3-0.1-0.5-0.2-0.6c-0.7-2.1-2.4-2.3-3.9-2.1
			c-0.2,0-0.8,0.1-1.5,0.2c2.8-1,5.6-2,7-2.6c3.3-1.4,5.6-3.9,5.8-6.7c0.1-1-0.1-2.2-0.7-3.4c-0.1-0.3-0.2-0.4-0.3-0.6
			c-0.7-1-1.4-1.8-2.2-2.1c0.6-0.2,1.1-0.5,1.5-0.7c3.1-1.8,5.6-5.9,5.4-8.8c0-1-0.4-2.2-1.1-3.4c-0.2-0.3-0.3-0.4-0.4-0.5
			c-1.2-1.5-2.5-1.5-3.9-1.1c1.6-1.2,3.1-2.4,3.9-3.1c2.7-2.3,4.2-5.4,3.6-8.1c-0.2-1-0.8-2.1-1.6-3c-0.2-0.2-0.3-0.3-0.5-0.4
			c-1.1-1-2.3-1-3.3-0.7c1.1-1,2-1.8,2.6-2.4c2.6-2.5,3.8-5.7,3-8.3c-0.3-1-0.9-2-1.8-2.9c-0.2-0.2-0.4-0.3-0.5-0.4
			c-1.8-1.4-3.5-0.5-5,0.5c1-1.1,1.8-2.2,2.3-2.8c2.1-2.9,2.9-6.2,1.7-8.7c-0.4-0.9-1.2-1.9-2.3-2.6c-0.3-0.2-0.4-0.3-0.6-0.3
			c-1.9-1-3.3-0.2-4.4,0.9c0.9-1.5,1.7-2.8,2.2-3.6c1.7-3.1,2-6.5,0.4-8.8c-0.6-0.8-1.4-1.7-2.6-2.2c-0.3-0.1-0.4-0.2-0.6-0.2
			c-1.5-0.5-2.7-0.1-3.6,0.8c0.5-1.3,0.9-2.4,1.1-3.1c1.1-3.4,0.7-6.8-1.3-8.8c-0.7-0.7-1.7-1.4-3-1.7c-0.3-0.1-0.5-0.1-0.6-0.1
			c-0.6-0.1-1.1-0.1-1.5,0.1l0.1-0.6c0.6-3.5-0.4-6.8-2.6-8.5c-0.8-0.6-1.9-1.1-3.2-1.2c-0.3,0-0.5,0-0.6,0c-0.5,0-0.9,0.1-1.3,0.2
			l0.1-0.7c0.4-3.5-0.6-6.8-2.9-8.4c-0.8-0.6-2-1-3.2-1.1c-0.3,0-0.5,0-0.6,0c-0.9,0-1.6,0.3-2.1,0.7c0.1-3.6-1.2-6.7-3.6-8.1
			c-0.9-0.5-2-0.8-3.3-0.8c-0.3,0-0.5,0-0.6,0c-0.5,0.1-0.9,0.2-1.3,0.4c-0.1-3.6-1.7-6.6-4.2-7.8c-0.9-0.4-2.1-0.7-3.4-0.6
			c-0.3,0-0.5,0.1-0.6,0.1c-1,0.2-1.6,0.6-2,1.2c-0.6-3.5-2.5-6.2-5.1-7.1c-1-0.3-2.2-0.4-3.4-0.2c-0.3,0.1-0.5,0.1-0.6,0.2
			c-0.9,0.3-1.5,0.8-1.9,1.5c-1.1-3.1-3.2-5.3-5.7-5.8c-1-0.2-2.2-0.2-3.4,0.3c-0.3,0.1-0.4,0.2-0.6,0.2c-0.8,0.4-1.3,0.9-1.6,1.5
			c-1.4-2.9-3.7-4.9-6.3-5.2c-1-0.1-2.2,0.1-3.4,0.6c-0.3,0.1-0.4,0.2-0.6,0.3c-0.9,0.6-1.4,1.3-1.6,2c-1.6-2.8-4-4.7-6.6-4.7
			c-1,0-2.2,0.2-3.3,0.8c-0.3,0.2-0.4,0.2-0.5,0.3c-0.7,0.5-1.1,1-1.3,1.6c-1.6-2.1-3.7-3.4-5.9-3.4c-1,0-2.2,0.3-3.3,0.9
			c-0.3,0.2-0.4,0.3-0.5,0.4c-0.8,0.6-1.2,1.3-1.3,2c-1.5-1.6-3.3-2.5-5.1-2.5c-1,0-2.2,0.3-3.3,0.9c-0.3,0.2-0.4,0.3-0.5,0.4
			c-0.9,0.7-1.3,1.5-1.4,2.4c-1.5-1.5-3.2-2.3-5-2.4c-1,0-2.2,0.3-3.3,0.9c-0.3,0.2-0.4,0.3-0.5,0.4c-1,0.8-1.4,1.6-1.4,2.6
			c-1.2-0.9-2.6-1.5-4-1.5c-1,0-2.2,0.3-3.3,0.9c-0.3,0.2-0.4,0.3-0.5,0.4c-1.5,1.1-1.6,2.5-1.3,3.9c-1.4-1.2-3-1.8-4.6-1.8
			c-1,0-2.2,0.3-3.3,1c-1.7,1.1-2.2,2.8-1.5,4.7c-1.3-0.9-2.7-1.4-4.2-1.3c-1.5,0.1-3.2,0.7-4.2,1.8c-0.5,0.6-0.8,1.3-0.9,2
			c0,0.4,0,2,0.4,2.2c-1.3-0.7-2.6-1.1-4-1c-1,0.1-2.1,0.5-3.2,1.2c-1.9,1.4-1.9,3.2-1,5.3c0.1,0.2,0.3,0.5,0.5,1
			c-1.6-1.2-3.5-1.8-5.2-1.5c-3.5,0.5-5.5,3.4-3.9,6.7c0.1,0.1,0.2,0.4,0.4,0.7c-1.4-0.7-2.8-1-4.2-0.7c-2,0.4-4.1,1.8-4.5,3.9
			c-0.6,2.7,1.2,4.9,2.6,7c1.9,2.9,4.2,5.6,6.6,8.1c0.7,0.7,1.5,1.5,2.3,2.1C50.7,51.6,51.5,52.1,52.4,52.4L52.4,52.4z"/>
		<path clip-path="url(#SVGID_4_)" fill="#FD9A2B" d="M164.2,245.9c-1-1.8-1.4-2.6-2.1-4.1c-4.4-9.1-3.2-14.9-3.1-16.6
			c0.6-0.6,0.9-1.5,1.1-2.1c0.2-0.7,0.4-1.8,0.3-2.8c0-0.3,0-0.3,0-0.5c-0.3-2-1.9-2.9-3.7-3.2c-1.7-0.3-3.5-0.5-5.2-0.6
			c-1.5-0.1-3-0.2-4.4,0.4c-0.9,0.4-1.5,1.1-1.9,2c-0.4,1.2-1,3,0,5.1c0.1,0.3,0.7,0.9,1,1.1c-0.3,1.4-0.4,3.9,0.5,7
			c2,7.2,5.5,12.1,12.4,16.9C163.2,251.4,166.2,249.5,164.2,245.9L164.2,245.9z"/>
	</g>
	<path fill="#FFC600" d="M55.2,46.7c-2.8-1.8-3.7-2.7-5.7-4.9c2.2,3.4,3.1,4.7,5.2,6.8c-2.2-1.1-3.7-2.4-5.3-4.4
		c0.9,2,1.6,3.1,2.8,4.6c-1.1-0.5-2.4-1.1-3.1-2c-1.2-1.5-3.6-4.6-5.5-7.5c-1.1-1.7-2.2-2.9-2.3-4.6c0.3-1.3,1.1-1.8,2.1-1.9
		c1.9-0.4,4.2,0.6,5.9,2.8c1.2,1.6,3.9,5.8,6,8.9c-2.1-1.7-5.4-5-6-5.9C50.3,40.8,53.7,44.8,55.2,46.7L55.2,46.7z"/>
	<path fill="#FFC600" d="M56.6,32c1,2.3,4.2,6.4,5.7,8.3c-2.7-1.9-3.6-2.9-5.5-5c2,3.5,3,4.8,5,7c-2.2-1.2-3.6-2.5-5.1-4.5
		c0.8,2,1.5,3.2,2.6,4.7c-1.1-0.5-2.1-1.3-2.9-2.3c-1.1-1.6-3.2-5-5.1-8c-1.1-1.7-2-3.2-2.6-4.1c0.5-0.8,1.3-1.4,2.3-1.6
		c1.9-0.3,4.1,0.9,5.7,3.1c1.2,1.6,3.7,5.5,5.7,8.6C60.4,36.4,57.2,33,56.6,32L56.6,32z"/>
	<path fill="#FFC600" d="M65,26.3c0.9,2.3,3.9,6.6,5.3,8.6c-2.6-2.1-3.4-3.1-5.3-5.3c1.9,3.6,2.7,5,4.6,7.3
		c-2.1-1.3-3.4-2.7-4.9-4.8c0.7,2,1.3,3.2,2.4,4.8c-1.1-0.6-2.1-1.5-2.7-2.5c-1.1-1.6-3-5.1-4.7-8.2c-1-1.8-1.8-3.3-2.4-4.3
		c0.5-0.8,1.3-1.3,2.3-1.4c1.9-0.2,4.1,1.1,5.6,3.4c1.1,1.7,3.4,5.7,5.2,8.9C68.6,30.9,65.6,27.3,65,26.3L65,26.3z"/>
	<path fill="#FFC600" d="M73.1,21.5c0.7,2.4,3.5,6.8,4.8,8.9c-2.5-2.2-3.3-3.2-5-5.6c1.7,3.7,2.4,5.1,4.2,7.5
		c-2-1.4-3.3-2.8-4.6-5.1c0.6,2.1,1.1,3.3,2.1,5c-1-0.7-2-1.6-2.6-2.6c-1-1.7-2.7-5.3-4.2-8.5c-0.9-1.8-1.6-3.4-2.1-4.4
		c0.6-0.8,1.4-1.3,2.4-1.3c1.9-0.1,4,1.3,5.4,3.7c1,1.8,3.1,5.8,4.7,9.1C76.4,26.3,73.6,22.5,73.1,21.5L73.1,21.5z"/>
	<path fill="#FFC600" d="M82,17.2c0.7,2.4,3.4,6.8,4.6,8.9c-2.4-2.2-3.2-3.3-4.9-5.7c1.6,3.7,2.3,5.1,4.1,7.6
		c-2-1.5-3.2-2.9-4.5-5.1c0.5,2.1,1.1,3.3,2,5c-1-0.7-1.9-1.6-2.6-2.7c-0.9-1.7-2.6-5.3-4.1-8.6c-0.8-1.8-1.6-3.4-2-4.4
		c0.6-0.8,1.4-1.2,2.4-1.3c1.9-0.1,4,1.4,5.3,3.8c1,1.8,3,5.9,4.6,9.2C85.2,22,82.4,18.2,82,17.2L82,17.2z"/>
	<path fill="#FFC600" d="M95.7,23.1c-2.4-2.3-3.1-3.4-4.7-5.9c1.5,3.8,2.2,5.2,3.8,7.7c-2-1.5-3.1-3-4.4-5.3c0.5,2.1,1,3.4,1.9,5.1
		c-1-0.7-1.9-1.7-2.5-2.8c-0.9-1.7-2.4-5.4-3.8-8.7c-0.8-1.9-1.4-3.5-1.9-4.5c0.6-0.8,1.5-1.2,2.5-1.2c1.9,0,3.9,1.5,5.2,4
		c0.9,1.8,2.8,6,4.2,9.4c-1.7-2.1-4.3-5.9-4.8-7C92,16.4,94.5,20.9,95.7,23.1L95.7,23.1z"/>
	<path fill="#FFC600" d="M104.9,20.8c-2.4-2.3-3.1-3.4-4.7-5.9c1.5,3.8,2.2,5.2,3.8,7.7c-2-1.5-3.1-3-4.4-5.3c0.5,2.1,1,3.4,1.9,5.1
		c-1-0.7-1.9-1.7-2.5-2.8c-0.9-1.7-2.4-5.4-3.8-8.7c-0.8-1.9-1.4-3.5-1.9-4.5C94.1,5.7,95,5.3,96,5.3c1.9,0,3.9,1.5,5.2,4
		c0.9,1.8,2.8,6,4.2,9.4c-1.7-2.1-4.3-5.9-4.8-7C101.2,14.1,103.8,18.6,104.9,20.8L104.9,20.8z"/>
	<path fill="#FFC600" d="M115.2,19.5c-2.4-2.3-3.1-3.4-4.7-5.9c1.5,3.8,2.2,5.2,3.8,7.7c-2-1.5-3.1-3-4.4-5.3c0.5,2.1,1,3.4,1.9,5.1
		c-1-0.7-1.9-1.7-2.5-2.8c-0.9-1.7-2.4-5.4-3.8-8.7c-0.8-1.9-1.4-3.5-1.9-4.5c0.6-0.8,1.5-1.2,2.5-1.2c1.9,0,3.9,1.5,5.2,4
		c0.9,1.8,2.8,6,4.2,9.4c-1.7-2.1-4.3-5.9-4.8-7C111.5,12.8,114,17.4,115.2,19.5L115.2,19.5z"/>
	<path fill="#FFC600" d="M125.5,18.8c-2.4-2.3-3.1-3.4-4.7-5.9c1.5,3.8,2.2,5.2,3.8,7.7c-2-1.5-3.1-3-4.4-5.3c0.5,2.1,1,3.4,1.9,5.1
		c-1-0.7-1.9-1.7-2.5-2.8c-0.9-1.7-2.4-5.4-3.8-8.7c-0.8-1.9-1.4-3.5-1.9-4.5c0.6-0.8,1.5-1.2,2.5-1.2c1.9,0,3.9,1.5,5.2,4
		c0.9,1.8,2.8,6,4.2,9.4c-1.7-2.1-4.3-5.9-4.8-7C121.8,12.1,124.3,16.7,125.5,18.8L125.5,18.8z"/>
	<path fill="#FFC600" d="M136.2,19.7c-2.3-2.4-3-3.5-4.6-5.9c1.4,3.8,2.1,5.3,3.7,7.8c-1.9-1.6-3.1-3.1-4.3-5.4
		c0.4,2.1,0.9,3.4,1.8,5.1c-1-0.7-1.9-1.7-2.4-2.8c-0.8-1.7-2.3-5.5-3.6-8.8c-0.7-1.9-1.4-3.5-1.8-4.5c0.6-0.8,1.5-1.2,2.5-1.1
		c1.9,0,3.9,1.6,5.1,4.1c0.9,1.8,2.6,6,4.1,9.4c-1.7-2.1-4.2-6-4.6-7.1C132.6,12.9,135.1,17.5,136.2,19.7L136.2,19.7z"/>
	<path fill="#FFC600" d="M147,22c-2.1-2.5-2.8-3.7-4.1-6.2c1.1,3.9,1.7,5.4,3.2,8c-1.8-1.7-2.9-3.3-3.9-5.6c0.3,2.1,0.7,3.4,1.4,5.2
		c-0.9-0.8-1.7-1.8-2.2-3c-0.7-1.8-1.9-5.6-3-9c-0.6-1.9-1.1-3.6-1.5-4.6c0.7-0.7,1.6-1.1,2.6-1c1.9,0.2,3.8,1.9,4.8,4.4
		c0.8,1.9,2.2,6.2,3.4,9.7c-1.5-2.2-3.8-6.3-4.1-7.4C143.9,15,146,19.7,147,22L147,22z"/>
	<path fill="#FFC600" d="M156.8,25.8c-1.9-2.7-2.4-3.9-3.5-6.6c0.7,4,1.1,5.5,2.3,8.3c-1.6-1.9-2.5-3.6-3.3-6c0,2.2,0.3,3.5,0.9,5.3
		c-0.6-0.7-1.2-1.4-1.6-2.3c0-0.2,0-0.5-0.1-0.7c0,0-0.4-1.4-0.9-3c-0.4-1.9-0.9-4.3-1.4-6.5c-0.4-2-0.8-3.7-1-4.8
		c0.8-0.6,1.7-0.9,2.7-0.7c1.9,0.4,3.6,2.3,4.3,4.9c0.6,1.9,1.6,6.4,2.4,10c-1.3-2.3-3.1-6.7-3.3-7.8
		C154.5,18.6,156.1,23.5,156.8,25.8L156.8,25.8z"/>
	<path fill="#FFC600" d="M166,30.7c-1.5-2.9-1.9-4.2-2.6-7c0.2,4,0.4,5.6,1.3,8.5c-1.4-2.1-2-3.8-2.5-6.4c-0.2,2.1-0.1,3.5,0.2,5.4
		c-0.5-0.6-0.9-1.3-1.1-2.1c0.1-0.3,0.1-0.7,0.1-0.9c0,0-0.4-2-0.8-3.9c-0.2-1.8-0.3-3.9-0.5-5.9c-0.2-2-0.3-3.7-0.4-4.9
		c0.8-0.5,1.8-0.7,2.7-0.4c1.8,0.6,3.3,2.7,3.7,5.4c0.3,2,0.8,6.5,1.1,10.2c-1-2.5-2.3-7-2.4-8.1C164.5,23.2,165.5,28.3,166,30.7
		L166,30.7z"/>
	<path fill="#FFC600" d="M175.9,35.5c-0.7-2.6-1.4-7.2-1.4-8.3c-0.5,2.4-0.1,7.6,0.1,10.1c-1.2-3.1-1.4-4.4-1.8-7.3
		c-0.3,4-0.2,5.6,0.2,8.6c-1.1-2.2-1.6-4.1-1.7-6.6c-0.5,2.1-0.6,3.5-0.4,5.4c-0.5-0.9-0.9-1.8-1-2.8c0.1-0.3,0.2-0.6,0.2-0.9
		c0,0-0.1-1.3-0.2-2.8c0-1.9,0.1-4.3,0.2-6.5c0.1-2,0.2-3.7,0.2-4.9c0.9-0.4,1.8-0.5,2.7,0c1.8,0.8,2.9,3.1,3,5.8
		C176.1,27.2,176,31.8,175.9,35.5L175.9,35.5z"/>
	<path fill="#FFC600" d="M184.8,33.4c-0.1,2-0.5,6.6-0.8,10.3c-0.5-2.6-0.9-7.3-0.8-8.4c-0.6,2.4-0.6,7.6-0.6,10.1
		c-0.9-3.2-1.1-4.5-1.2-7.4c-0.5,4-0.6,5.6-0.4,8.6c-1-2.3-1.3-4.2-1.3-6.7c-0.6,2.1-0.8,3.4-0.8,5.3c-0.5-1.1-0.9-2.4-0.8-3.6
		l0-0.2c0.1-0.3,0.2-0.5,0.2-0.7c0,0,0.1-1.8,0.2-3.6c0.2-1.6,0.4-3.3,0.5-4.9c0.2-2,0.4-3.7,0.5-4.8c0.9-0.4,1.9-0.3,2.7,0.2
		C183.9,28.4,184.9,30.7,184.8,33.4L184.8,33.4z"/>
	<path fill="#FFC600" d="M192,52.1c-0.3-2.7-0.3-7.3,0-8.4c-0.8,2.3-1.3,7.5-1.5,10c-0.7-3.2-0.7-4.6-0.6-7.5
		c-0.9,4-1.1,5.5-1.1,8.5c-0.8-2.4-0.9-4.3-0.7-6.8c-0.8,2-1.1,3.3-1.3,5.2c-0.4-1.1-0.6-2.4-0.5-3.7c0.2-1.9,1-5.8,1.7-9.3
		c0.4-2,0.7-3.7,0.9-4.8c0.9-0.3,1.9-0.2,2.7,0.4c1.6,1.1,2.4,3.5,2.1,6.2C193.4,44,192.6,48.5,192,52.1L192,52.1z"/>
	<path fill="#FFC600" d="M197.6,63.6c-0.5-3.3-0.5-4.6-0.3-7.5c-1,3.9-1.3,5.5-1.4,8.5c-0.7-2.4-0.8-4.3-0.4-6.8
		c-0.9,2-1.2,3.3-1.5,5.2c-0.4-1.2-0.6-2.5-0.4-3.7c0.3-1.9,1.2-5.8,2.1-9.2c0.5-2,0.9-3.6,1.1-4.7c1-0.2,1.9-0.1,2.7,0.5
		c1.6,1.2,2.3,3.6,1.8,6.3c-0.2,1.3-0.7,3.5-1.2,5.9l-0.9,4.2c0-0.5-0.1-1-0.1-1.6c0-2.6,0.1-5.9,0.3-6.8
		C198.6,56.1,198,61.2,197.6,63.6L197.6,63.6z"/>
	<path fill="#FFC600" d="M203,66.2c-1.6,3.7-2.2,5.2-2.7,8.2c-0.3-2.5-0.1-4.3,0.7-6.8c-1.2,1.8-1.7,3.1-2.3,4.9c-0.2-1-0.2-2,0-3
		c0-0.2,0.1-0.5,0.2-0.7c0.6-1.8,2.1-5.5,3.5-8.8l0.1-0.3c0.7-1.7,1.3-3.2,1.7-4.2c1-0.1,1.9,0.2,2.6,0.9c1.4,1.4,1.7,3.9,0.8,6.5
		c-0.6,1.9-2.3,6.2-3.6,9.6c0.2-2.7,1.2-7.2,1.6-8.3c-1.3,2.1-2.7,7.1-3.4,9.5C202.1,70.3,202.4,69,203,66.2L203,66.2z"/>
	<path fill="#FFC600" d="M203.4,85.9c0.2-2.5,0.7-4.3,1.9-6.6c-1.5,1.6-2.3,2.7-3.2,4.4c0-1.2,0.3-2.5,0.9-3.6
		c0.2-0.4,0.5-0.9,0.9-1.4c0.2-0.2,0.4-0.4,0.5-0.7l0.2-0.4c1-1.7,2.4-3.7,3.6-5.5c1.1-1.7,2.1-3.1,2.7-4.1c1,0.1,1.8,0.6,2.4,1.4
		c1.1,1.6,0.9,4.1-0.4,6.5c-1,1.8-3.4,5.6-5.4,8.8c0.7-2.6,2.5-6.9,3.1-7.8c-1.6,1.9-4,6.5-5.1,8.7c0.6-3.2,1.1-4.5,2.2-7.1
		C205.4,81.7,204.6,83.1,203.4,85.9L203.4,85.9z"/>
	<path fill="#FFC600" d="M204.8,96.1c0.2-1.2,0.7-2.4,1.4-3.4c1.2-1.5,3.8-4.5,6.2-7.2c1.3-1.5,2.5-2.8,3.2-3.7
		c1,0.2,1.7,0.8,2.1,1.7c0.8,1.8,0.3,4.2-1.3,6.4c-1.2,1.6-4.2,5.1-6.6,7.9c1.1-2.4,3.4-6.5,4.2-7.3c-1.9,1.6-4.9,5.9-6.3,7.9
		c1-3.1,1.7-4.3,3.2-6.8c-2.7,3-3.7,4.2-5.3,6.8c0.5-2.4,1.3-4.1,2.8-6.2C206.8,93.6,205.9,94.6,204.8,96.1L204.8,96.1z"/>
	<path fill="#FFC600" d="M206.1,107.8c0.4-1.2,1-2.3,1.9-3.2c1.4-1.3,4.5-3.9,7.2-6.1c1.6-1.3,2.9-2.4,3.7-3.1
		c0.9,0.4,1.6,1.1,1.9,2c0.6,1.9-0.3,4.2-2.3,6.1c-1.5,1.4-4.9,4.4-7.7,6.8c1.5-2.2,4.4-5.9,5.3-6.6c-2.1,1.3-5.7,5-7.4,6.8
		c1.5-2.9,2.4-4,4.2-6.2c-3.2,2.5-4.4,3.6-6.3,5.9c0.9-2.3,2-3.9,3.8-5.7C208.5,105.6,207.5,106.5,206.1,107.8L206.1,107.8z"/>
	<path fill="#FFC600" d="M199.1,169.6c-0.8,1.8-2.9,3.1-5.4,3.4c-1.9,0.2-6.1,0.4-9.6,0.6c2.4-0.9,6.7-1.9,7.8-1.9
		c-2.3-0.3-7.1,0.4-9.4,0.8c2.9-1.4,4.1-1.6,6.8-2.2c-3.8,0-5.3,0.1-8,0.8c2.1-1.3,3.8-1.8,6.2-2.1c-2-0.3-3.2-0.3-5-0.1
		c1-0.7,2.2-1.2,3.3-1.3c1.8-0.2,5.5-0.3,8.8-0.4c1.9-0.1,3.5-0.1,4.5-0.2C199.5,167.8,199.5,168.7,199.1,169.6L199.1,169.6z"/>
	<path fill="#FFC600" d="M207.3,154.9c0.5,0.8,0.6,1.7,0.3,2.7c-0.6,1.9-2.5,3.4-5,4c-1.8,0.4-6,1.2-9.5,1.8
		c2.3-1.1,6.4-2.7,7.5-2.9c-2.3,0-7,1.3-9.2,1.9c2.7-1.7,3.9-2.1,6.5-3c-3.7,0.5-5.2,0.8-7.9,1.8c1.9-1.5,3.5-2.3,5.9-2.9
		c-2-0.1-3.2,0.1-5,0.5c0.9-0.8,2-1.4,3.1-1.7c1.8-0.4,5.5-1,8.7-1.5C204.7,155.3,206.3,155.1,207.3,154.9L207.3,154.9z"/>
	<path fill="#FFC600" d="M214.6,142.9c-0.2,1.9-1.8,3.8-4.3,4.9c-1.9,0.8-6.2,2.3-9.7,3.6c2.2-1.6,6.2-3.9,7.3-4.3
		c-2.4,0.5-7.1,2.7-9.4,3.7c2.5-2.2,3.6-2.8,6.2-4.2c-3.9,1.2-5.4,1.8-8,3.3c1.7-1.8,3.2-2.9,5.6-4c-2.1,0.3-3.4,0.7-5.2,1.5
		c0.8-1,1.8-1.8,2.9-2.3c1.8-0.8,5.6-2,8.9-3.2c1.9-0.6,3.6-1.2,4.6-1.6C214.3,141,214.7,141.9,214.6,142.9L214.6,142.9z"/>
	<path fill="#FFC600" d="M217,125.2c0.8,0.6,1.3,1.5,1.3,2.5c0.1,2-1.3,4.1-3.7,5.5c-1.8,1-5.8,3.2-9.1,4.9c2-1.9,5.7-4.7,6.7-5.3
		c-2.4,0.8-6.8,3.6-8.9,4.9c2.2-2.6,3.2-3.4,5.6-5.1c-3.7,1.7-5.1,2.5-7.5,4.4c1.4-2.1,2.8-3.4,5-4.8c-2.1,0.6-3.3,1.2-4.9,2.2
		c0.7-1.1,1.6-2,2.6-2.7c1.7-1,5.3-2.8,8.5-4.3C214.4,126.5,216,125.7,217,125.2L217,125.2z"/>
	<path fill="#FFC600" d="M217.8,118c-1.5,1.3-5.2,4-8.2,6.2c1.6-2.1,4.8-5.5,5.7-6.2c-2.2,1.1-6.1,4.6-7.9,6.3
		c1.7-2.8,2.6-3.8,4.7-5.9c-3.4,2.3-4.6,3.3-6.7,5.5c1-2.2,2.2-3.7,4.2-5.4c-2,0.9-3.1,1.7-4.5,2.9c0.5-1.1,1.2-2.2,2.1-3
		c1.5-1.2,4.7-3.6,7.6-5.6c1.6-1.2,3-2.2,3.9-2.9c0.9,0.4,1.5,1.2,1.7,2.1C221,113.9,219.9,116.2,217.8,118L217.8,118z"/>
	<path fill="#FFC600" d="M122.6,199c-0.9,1.7-3.1,5-4.9,8c-1.1,1.7-2.3,3.4-2.8,4.3c-0.8-0.2-1.2-1.1-1.6-2c-0.8-1.9-0.4-4.6,0.9-7
		c1-1.8,3.3-5.7,5.3-8.8c-0.8,2.7-2.7,7.1-3.3,8.1c1.5-1.8,3.9-6.5,5-8.7c-0.8,3.4-1.3,4.7-2.5,7.4c2.2-3.3,3-4.7,4.2-7.6
		c-0.4,2.6-1,4.5-2.2,6.9c1.4-1.5,2.1-2.6,3-4.3C123.5,196.6,123.2,197.9,122.6,199L122.6,199z"/>
	<path fill="#FFC600" d="M132.4,197.8c-0.7,1.8-2.5,5.3-4.1,8.5c-0.9,1.8-1.8,3.6-2.3,4.6c-0.8-0.1-1.4-0.9-1.8-1.9
		c-1-1.8-0.9-4.5,0.2-7c0.8-1.9,2.7-6,4.3-9.3c-0.6,2.8-1.9,7.4-2.4,8.4c1.3-2,3.2-6.9,4.1-9.2c-0.4,3.5-0.8,4.8-1.7,7.7
		c1.9-3.5,2.5-5,3.4-8c-0.1,2.7-0.5,4.6-1.5,7c1.2-1.6,1.8-2.8,2.5-4.6C133.1,195.3,132.8,196.7,132.4,197.8L132.4,197.8z"/>
	<path fill="#FFC600" d="M200.1,195.6c-7.6,2.4-36.1,13.5-41.7,14c-2,0.2-10.6-0.6-15.3-1.2c-4.6-0.6-10.4-1-10-3.2
		c0.4-2.2,6.1-12.3,6.1-12.3s-1.5,3.7-1.4,8.1c0,2.1,1,3.5,1,3.5s-0.2-3.3,1.2-7c1.3-3.5,3-4.4,3-4.4s-1,2.8-1,5.7
		c0,2.9,0.9,5.7,0.9,5.7s0.1-3.4,0.9-6.6c1-4.1,2.6-5.9,2.6-5.9s-0.7,2.7-1,6.2c-0.3,3.5,0.8,7.1,0.8,7.1s0.3-4.4,1.1-7.7
		c0.8-3.2,1.8-6.6,1.8-6.6s-0.6,6-0.8,9.2c-0.2,3.3,0.3,5.1,0.3,5.1s1.2-4.4,1.6-7.1c0.5-2.7,0.7-8.1,0.7-8.1s0.7,3.5,0.7,6.9
		c0,3.4,0.3,8.5,0.3,8.5s2-5.2,2.1-10.2c0.2-5,0.2-6.7,0.2-6.7s1.3,4.4,1.7,9.5c0.5,5.1,0.3,7,0.3,7s1.6-5.9,2-10.4
		c0.4-4.5-0.3-8.1-0.3-8.1s1.2,3.6,1.7,8.2c0.5,4.7-0.4,10.9-0.4,10.9s2.4-6,2.8-9.9c0.3-3.9-0.4-8.9-0.4-8.9s1.3,3.3,2,7.3
		c0.7,4-0.1,9.9-0.1,9.9s1.6-4.8,2.3-8.1c0.7-3.3-0.6-9.3-0.6-9.3s1.6,3.5,2.3,7.9c0.7,4.4-0.2,8.6-0.2,8.6s2.1-5.1,2.6-9
		c0.5-3.9-0.5-8.1-0.5-8.1s2,5.3,2.4,8.8c0.3,3.5-0.4,6.8-0.4,6.8s1.8-4.6,2.1-8c0.3-3.4-0.2-6.3-0.2-6.3s1.2,2.4,1.8,6
		c0.6,3.6-0.5,7.9-0.5,7.9s2.2-4.1,3.1-7.6c0.8-3.5-0.2-6-0.2-6s1.9,3.7,1.9,6.6c0,2.9-1.3,6.6-1.3,6.6s2-3.4,2.7-6.2
		c0.7-2.8,0-5.8,0-5.8s1.5,2.5,1.8,5.3c0.4,2.8-0.5,5-0.5,5s1.4-2.5,2.1-4.7c0.6-2.2,0.2-5.1,0.2-5.1s1,1.6,1.2,3.6
		c0.2,1.9,0.3,4.8,0.3,4.8s1.2-2.7,1.4-4.6c0.2-1.9-0.2-4-0.2-4s1.3,1.9,1.6,3.6c0.3,1.7,0.2,4.6,0.2,4.6s1.1-2,1.1-3.5l0.2-3.8
		c0,0,0.8,1.5,1,2.8c0.3,1.3,0.3,3.7,0.3,3.7s1-1.5,1.2-3.2c0.2-1.7,0.1-3.4,0.1-3.4s0.6,1,1.1,2.1c0.5,1.1,0.4,3.8,0.4,3.8
		s0.8-1.2,1-2.7c0.2-1.5-0.1-3-0.1-3s1,1.6,1.2,2.8c0.3,1.2-0.1,2.8-0.1,2.8s1.1-0.9,1.5-2.2c0.4-1.2,0.6-3.1,0.6-3.1
		s0.6,0.5,0.8,1.8c0.1,1.4-0.4,2.8-0.4,2.8s1.3-1,1.8-2.4c0.5-1.5,0.8-2.7,0.9-1.2C202,192.8,201.6,195.1,200.1,195.6L200.1,195.6z"
		/>
	<path fill="#FFC600" d="M147.4,222c1.5-0.6,3.9-0.7,5.3-0.8c-2-0.5-3.9-0.5-5.4-0.4c1.1-0.6,4-1.1,5.3-1c-1-0.5-4.1-0.8-5.1-0.8
		c0.5-0.4,2.2-0.7,3.4-0.8c1,0,2.7,0.1,4.4,0.4c2.1,0.3,2.4,0.5,2.7,1c0.2,0.7,0.1,2-0.1,2.6c-0.4,1.2-1.5,1.8-2.9,1.7
		c-1-0.1-5.4-0.2-7.2-0.6c1.3-0.3,5.7-0.8,6.3-0.6C152.9,222.2,148.6,222.1,147.4,222L147.4,222z"/>
	<path fill="#FFC600" d="M160.9,247.4c-0.2-0.1-0.5-0.3-0.7-0.4c-0.1-0.1-0.1-0.3-0.1-0.4c0-0.4,0.3-0.7,0.3-0.7s-0.3,0-0.7,0.3
		c-0.1,0.1-0.2,0.2-0.3,0.2c-0.1-0.1-0.2-0.1-0.3-0.2c0-0.2,0-0.5,0.1-0.7c0.2-0.5,0.4-0.5,0.4-0.5s-0.4-0.1-1,0.1
		c-0.3,0.1-0.5,0.2-0.6,0.3c0,0,0,0,0,0s0.1-0.5,0.6-0.9c0.4-0.3,0.7-0.3,0.7-0.3s-0.7-0.3-1.6-0.2c-0.5,0-1,0.3-1,0.3
		s0.1-0.7,1.4-1c0.6-0.1,0.8-0.2,0.8-0.2s-0.9-0.4-1.7-0.5c-0.8-0.1-1.8,0.1-1.8,0.1s0.7-0.6,1.3-0.7c0.6-0.1,1.5-0.2,1.5-0.2
		s-0.8-0.4-1.8-0.4c-1-0.1-1.8,0.2-1.8,0.2s0.2-0.6,0.8-0.9c0.6-0.3,1.5-0.4,1.5-0.4s-0.7-0.3-1.7-0.4c-0.9-0.1-1.7,0.2-1.7,0.2
		s0.2-0.6,1.6-1c0.8-0.2,1.4-0.2,1.4-0.2s-0.4-0.4-1.6-0.5c-1.2-0.1-2.3,0.3-2.3,0.3s0.2-0.6,1.2-1.1c0.7-0.3,2-0.3,2-0.3
		s-1-0.5-2.3-0.5c-1.3,0-2.3,0.4-2.3,0.4s0.4-0.7,2-1.1c1.1-0.3,2.1-0.2,2.1-0.2s-1.3-0.5-2.7-0.7c-1.4-0.1-2.4,0.3-2.4,0.3
		s0.4-1.1,2.6-1.4c1.4-0.2,2.1,0,2.1,0s-1.3-0.7-3-0.8c-1.6-0.1-2.5,0.4-2.5,0.4s0.4-1.4,2.6-1.5c1.1-0.1,2.6,0.3,2.6,0.3
		s-0.7-1.1-3-1.2c-2.2-0.2-3,0.4-3,0.4s0.4-1.3,2.5-1.5c1.8-0.1,3.5,0.4,3.5,0.4s-0.9-1.2-3.5-1.5c-1.7-0.2-3.2,0.4-3.2,0.4
		s1.1-1.2,2.9-1.2c1.4-0.1,3.5,0.6,3.5,0.6s-1.2-1-3-1.5c-2.5-0.7-3.9-0.1-3.9-0.1s-0.2-1.9,5.5-1c1.2,0.2,1.6,0.2,2.5,0.2
		c0.6-0.1,0.8-0.1,1.1-0.1c-0.1,0.6-0.6,5.9,1.8,12c1.7,4.1,3.6,7.6,3.9,8.1C163,247.7,162.1,248.1,160.9,247.4L160.9,247.4z"/>
	<path fill="#FFC600" d="M45.5,155.3c-3,1.5-4.2,1.8-7.1,2.5c4.1-0.2,5.6-0.3,8.5-1.1c-2.1,1.4-3.9,2-6.4,2.4
		c2.1,0.3,3.5,0.2,5.4-0.1c-1,0.7-2.2,1.2-3.4,1.4c-1.9,0.3-5.9,0.5-9.4,0.7c-2,0.1-3.7,0.2-4.9,0.3c-0.5-0.8-0.6-1.8-0.3-2.7
		c0.7-1.8,2.7-3.2,5.5-3.6c2-0.3,6.6-0.7,10.2-1c-2.5,1-7,2.1-8.1,2.2C38,156.6,43.1,155.7,45.5,155.3L45.5,155.3z"/>
	<path fill="#FFC600" d="M41,146.3c-3.1,1.2-4.4,1.4-7.3,1.8c4,0.3,5.6,0.2,8.6-0.2c-2.2,1.1-4.1,1.6-6.6,1.7
		c2.1,0.5,3.5,0.6,5.4,0.4c-1.1,0.6-2.3,1-3.5,1.1c-1.9,0.1-5.9-0.1-9.5-0.3c-2-0.1-3.7-0.2-4.9-0.2c-0.4-0.9-0.5-1.8,0-2.7
		c0.8-1.8,3.1-2.9,5.8-3c2-0.1,6.6,0,10.3,0.1c-2.6,0.7-7.2,1.4-8.3,1.4C33.3,146.9,38.5,146.5,41,146.3L41,146.3z"/>
	<path fill="#FFC600" d="M36.5,137.5c-3.2,0.9-4.5,1-7.4,1.1c4,0.6,5.6,0.7,8.6,0.5c-2.3,0.9-4.2,1.2-6.8,1.1
		c2.1,0.7,3.4,0.9,5.3,0.9c-1.1,0.5-2.4,0.8-3.6,0.7c-1.9-0.1-5.9-0.6-9.4-1.1c-2-0.3-3.7-0.5-4.8-0.6c-0.3-0.9-0.3-1.9,0.2-2.7
		c1-1.7,3.3-2.6,6-2.5c1.1,0.1,3,0.2,5.1,0.5l2.2,0.4c0.3,0,0.6,0,0.9-0.1l2,0.2c-2.6,0.5-7.3,0.8-8.4,0.6
		C28.9,137.3,34.1,137.4,36.5,137.5L36.5,137.5z"/>
	<path fill="#FFC600" d="M33.8,128.9c-3.3,0.5-4.6,0.4-7.5,0.2c3.9,1.1,5.5,1.4,8.5,1.6c-2.4,0.6-4.3,0.7-6.8,0.3
		c2,0.9,3.3,1.3,5.2,1.6c-0.8,0.3-1.6,0.4-2.5,0.4l-1.6-0.2c-2-0.4-5.6-1.3-8.9-2.2c-1.9-0.5-3.6-0.9-4.7-1.2
		c-0.2-1-0.1-1.9,0.5-2.7c1.2-1.5,3.6-2.2,6.3-1.7c2,0.3,6.4,1.4,10,2.3c-2.7,0.1-7.3-0.1-8.4-0.4C26.2,127.8,31.4,128.6,33.8,128.9
		L33.8,128.9z"/>
	<path fill="#FFC600" d="M32.7,121.4c-2.4,0.5-4.3,0.5-6.9-0.1c1.9,1,3.2,1.4,5.1,1.8c-1.2,0.3-2.5,0.4-3.7,0.1
		c-1.9-0.4-5.7-1.6-9.1-2.7c-1.9-0.6-3.6-1.1-4.7-1.4c-0.2-1,0-1.9,0.7-2.7c1.3-1.5,3.7-2,6.4-1.4c1.4,0.3,4,1.1,6.6,1.8l0.6,0.2
		l0.4,0l2.3,0.7c-2.7,0-7.3-0.5-8.4-0.8c2.2,1.1,7.3,2.1,9.8,2.5c-3.3,0.3-4.6,0.2-7.5-0.2C28.2,120.7,29.7,121.1,32.7,121.4
		L32.7,121.4z"/>
	<path fill="#FFC600" d="M23.7,59c0.2-1,0.8-1.7,1.7-2.1c1.8-0.8,4.2-0.3,6.4,1.3c0.8,0.6,2.9,1.9,4.3,3.1c1.3,1.2,3.6,3.5,3.6,3.5
		c-2.5-1.1-6.5-3.5-7.3-4.2c1.6,1.9,5.9,4.9,7.9,6.3c-3.1-1-4.3-1.7-6.8-3.2c3,2.7,4.2,3.7,6.8,5.3c-2.4-0.5-4.1-1.3-6.2-2.8
		c1.3,1.7,2.3,2.6,3.9,3.7c-1.2-0.2-2.4-0.7-3.4-1.4c-1.5-1.2-4.5-3.8-7.2-6.2C25.9,60.9,24.6,59.7,23.7,59L23.7,59z"/>
	<path fill="#FFC600" d="M21.3,66.5c1.7-0.9,4.2-0.6,6.5,1c1.7,1.1,5.3,3.9,8.3,6.1c-2.5-1-6.6-3.1-7.5-3.8c1.7,1.8,6.1,4.5,8.2,5.9
		c-3.2-0.9-4.4-1.5-6.9-2.9c3.1,2.6,4.4,3.5,7.1,4.9c-2.4-0.4-4.2-1.1-6.4-2.5c1.4,1.6,2.5,2.5,4.1,3.5c-1.2-0.1-2.5-0.5-3.5-1.2
		c-1.6-1.1-4.7-3.6-7.5-5.8c-1.6-1.3-2.9-2.3-3.8-3C19.9,67.8,20.4,67,21.3,66.5L21.3,66.5z"/>
	<path fill="#FFC600" d="M18,75.8c1.7-1,4.2-0.8,6.5,0.6c1.7,1,5.5,3.6,8.6,5.7c-2.5-0.8-6.8-2.7-7.7-3.4c1.8,1.7,6.4,4.2,8.5,5.4
		c-3.2-0.7-4.4-1.2-7.1-2.5c3.3,2.4,4.6,3.3,7.3,4.5c-2.5-0.3-4.3-0.9-6.5-2.2c1.5,1.5,2.6,2.3,4.3,3.3c-0.4,0-0.8-0.1-1.2-0.2
		c-2.4-1.4-5-2.9-6.8-3.9c-1.1-0.8-2.2-1.6-3.3-2.4c-1.6-1.2-3.1-2.2-4-2.8C16.6,77.1,17.1,76.3,18,75.8L18,75.8z"/>
	<path fill="#FFC600" d="M14.3,87.5c0.1-1,0.5-1.8,1.3-2.4c1.6-1.1,4.1-1.1,6.5,0.2l0.6,0.3c2.4,1.6,4.9,3.2,6.8,4.4
		c-2.5-0.8-5.6-1.9-6.4-2.4c1.9,1.6,6.6,3.8,8.9,4.8c-3.3-0.5-4.5-0.9-7.2-2c3.4,2.2,4.8,3,7.6,4c-2.5-0.1-4.3-0.6-6.6-1.7
		c1.6,1.4,2.8,2.2,4.5,3c-0.6,0-1.2,0-1.8-0.2c-2.8-1.5-5.7-3-7.3-3.8l-2.7-1.7C16.8,89,15.3,88.1,14.3,87.5L14.3,87.5z"/>
	<path fill="#FFC600" d="M13,96.9c0-1,0.4-1.8,1.2-2.5c1.5-1.1,3.8-1.2,6.1-0.2c2.7,1.5,5.7,3.2,7.9,4.3c0.2,0.1,0.5,0.1,0.7,0.2
		l0.9,0.5c-2.6-0.6-7.1-2-8-2.6c2,1.5,6.8,3.5,9,4.5c-3.3-0.4-4.5-0.8-7.3-1.7c3.5,2.1,4.9,2.8,7.8,3.7c-2.5,0-4.3-0.4-6.7-1.5
		c1.7,1.4,2.8,2.1,4.6,2.8c-1.2,0.1-2.5-0.1-3.6-0.7c-1.7-0.8-5.2-2.8-8.3-4.5C15.5,98.3,13.9,97.5,13,96.9L13,96.9z"/>
	<path fill="#FFC600" d="M13.9,105.1c1.5-1.3,4-1.5,6.5-0.5c1.9,0.7,6.1,2.6,9.4,4.1c-2.7-0.4-7.2-1.5-8.2-2c2.1,1.4,7,3.1,9.3,3.9
		c-3.3-0.1-4.6-0.5-7.4-1.2c3.6,1.8,5.1,2.4,8,3.2c-2.5,0.2-4.3-0.1-6.8-1c1.8,1.3,3,1.9,4.8,2.5c-1.2,0.1-2.5,0-3.7-0.4
		c-1.8-0.7-5.4-2.4-8.6-3.9c-1.8-0.9-3.4-1.6-4.4-2.1C12.8,106.6,13.1,105.8,13.9,105.1L13.9,105.1z"/>
	<path fill="#FFC600" d="M53.1,167.4c-0.4,0.3-2,1-2.8,1.2c-2,0.7-5.8,1-5.8,1c-3.6,0.3-7.8,0.7-8.9,0.6c-0.4-0.8-1.3-2.1-0.7-3.5
		c0.7-1.7,2.7-2.8,5.2-3.1c1.9-0.2,6.1-0.3,9.5-0.4c-2.4,0.8-6.6,1.6-7.6,1.7c2.3,0.3,7-0.3,9.3-0.6c-2.8,1.2-4,1.5-6.6,2
		c3.7,0,6.2-0.5,8.9-1.1c-2,1.1-4.6,2.1-7,2.4C48.5,168,51.3,167.6,53.1,167.4L53.1,167.4z"/>
	<path fill="#1D1D1B" d="M301.4,79.5c-0.1,0-0.4,0.1-0.8,0.1c-0.4,0.1-0.9,0.2-1.6,0.3v28.9c0.7,0.1,1.2,0.2,1.6,0.3
		c0.4,0.1,0.7,0.1,0.8,0.1c0.1,0,0.3,0,0.3,0.1c0.9,0.2,1.4,0.8,1.4,1.7v3.2h-4.2h-6.5h-5V111c0-1,0.5-1.5,1.4-1.7
		c0.1,0,1.3-0.2,3.6-0.5V88.6c0-0.5,0-1,0-1.6c0-0.6,0.1-1.1,0.1-1.7l-12,22.6c-0.3,0.5-0.6,0.9-1.1,1.2c-0.4,0.3-1,0.4-1.5,0.4h-1
		c-0.6,0-1.1-0.1-1.5-0.4c-0.4-0.3-0.8-0.7-1.1-1.2l-12.2-22.7c0.1,0.6,0.1,1.2,0.2,1.8c0,0.6,0,1.1,0,1.6v20.3
		c2.3,0.3,3.5,0.5,3.6,0.5c0.9,0.2,1.4,0.8,1.4,1.7v3.2h-5h-6.5h-4.2V111c0-1,0.5-1.5,1.4-1.7c0.1,0,0.2,0,0.3-0.1
		c0.1,0,0.4-0.1,0.8-0.1c0.4-0.1,0.9-0.2,1.6-0.3V79.9c-0.7-0.1-1.2-0.2-1.6-0.3c-0.4-0.1-0.7-0.1-0.8-0.1c-0.1,0-0.3,0-0.3-0.1
		c-0.9-0.2-1.4-0.8-1.4-1.7v-3.2h4.2h5.6c0.3,0,0.6,0,0.9,0c0.2,0,0.5,0.1,0.6,0.1c0.2,0.1,0.4,0.2,0.5,0.4c0.2,0.2,0.3,0.4,0.5,0.7
		l11.9,22.1c0.3,0.6,0.6,1.2,0.9,1.8c0.3,0.6,0.5,1.3,0.8,1.9c0.3-0.7,0.5-1.3,0.8-2c0.3-0.6,0.6-1.3,0.9-1.8l11.8-22
		c0.1-0.3,0.3-0.5,0.5-0.7c0.2-0.2,0.3-0.3,0.5-0.4c0.2-0.1,0.4-0.1,0.6-0.1c0.2,0,0.5,0,0.9,0h5.6h4.2v3.2c0,1-0.5,1.5-1.4,1.7
		C301.6,79.4,301.5,79.5,301.4,79.5L301.4,79.5z"/>
	<path fill="#1D1D1B" d="M348.5,74.5v3.2c0,1-0.5,1.5-1.4,1.7c-0.1,0-0.2,0-0.3,0.1c-0.1,0-0.4,0.1-0.8,0.1
		c-0.4,0.1-0.9,0.2-1.6,0.3v18.4c0,2.4-0.4,4.6-1.1,6.6c-0.8,2-1.9,3.7-3.3,5.2c-1.4,1.5-3.2,2.6-5.2,3.4c-2,0.8-4.3,1.2-6.9,1.2
		c-2.6,0-4.8-0.4-6.9-1.2c-2-0.8-3.8-2-5.2-3.4c-1.4-1.5-2.5-3.2-3.3-5.2c-0.8-2-1.1-4.2-1.1-6.6V79.9c-0.7-0.1-1.2-0.2-1.6-0.3
		c-0.4-0.1-0.7-0.1-0.8-0.1c-0.1,0-0.3,0-0.3-0.1c-0.9-0.2-1.4-0.8-1.4-1.7v-3.2h4.2h7.4h4.4v3.2c0,1-0.5,1.5-1.4,1.7
		c-0.1,0-0.2,0-0.4,0.1c-0.2,0-0.5,0.1-0.9,0.1c-0.4,0.1-1,0.2-1.7,0.3v18.4c0,1.5,0.2,2.9,0.6,4.1c0.4,1.2,1,2.3,1.8,3.2
		c0.8,0.9,1.7,1.5,2.8,2c1.1,0.5,2.4,0.7,3.8,0.7c1.4,0,2.7-0.2,3.8-0.7c1.1-0.5,2.1-1.1,2.9-2c0.8-0.9,1.4-1.9,1.8-3.1
		c0.4-1.2,0.6-2.6,0.6-4.1V79.9c-0.7-0.1-1.2-0.2-1.7-0.3c-0.4-0.1-0.8-0.1-0.9-0.1c-0.2,0-0.3,0-0.4-0.1c-0.9-0.2-1.4-0.8-1.4-1.7
		v-3.2h4.4h7.4H348.5L348.5,74.5z"/>
	<path fill="#1D1D1B" d="M377.5,101.8c0,1.8-0.3,3.5-0.9,5.1c-0.6,1.6-1.5,2.9-2.7,4.1c-1.2,1.2-2.6,2.1-4.3,2.8
		c-1.7,0.7-3.7,1-5.9,1c-0.2,0-0.5,0-0.8,0c-3.5,0-7.3-0.7-11.4-2.1v-1v-9.3h0.2h0.7h2.3c0.7,0,1.1,0.3,1.3,1c0.1,0.5,0.3,2,0.5,4.5
		c1.6,0.5,4.1,0.7,7.5,0.7c2.1,0,3.7-0.5,4.9-1.5c1.2-1,1.7-2.4,1.7-4.3c0-1-0.3-1.9-0.8-2.6c-0.5-0.7-1.2-1.2-2.1-1.7
		c-0.9-0.4-1.8-0.8-2.9-1.1c-1.1-0.3-2.2-0.7-3.4-1c-1.1-0.4-2.3-0.8-3.4-1.3c-1.1-0.5-2.1-1.2-2.9-2c-0.9-0.8-1.6-1.9-2.1-3.1
		c-0.5-1.2-0.8-2.8-0.8-4.6c0-1.4,0.3-2.9,0.9-4.2c0.6-1.4,1.4-2.6,2.5-3.7c1.1-1.1,2.5-1.9,4.1-2.6c1.6-0.6,3.5-1,5.5-1
		c3.9,0,7.7,0.8,11.4,2.3v10.2h-0.2h-0.7h-2.3c-0.7,0-1.1-0.3-1.3-1c-0.1-0.5-0.3-2-0.5-4.5c-1.4-0.6-3.5-0.9-6.4-0.9
		c-1,0-1.9,0.1-2.7,0.4c-0.8,0.2-1.4,0.6-1.9,1c-0.5,0.4-0.9,1-1.2,1.6c-0.3,0.6-0.4,1.3-0.4,2c0,0.9,0.3,1.7,0.8,2.3
		c0.5,0.6,1.2,1.2,2.1,1.6c0.9,0.4,1.8,0.8,2.9,1.2c1.1,0.3,2.2,0.7,3.4,1.1c1.2,0.4,2.3,0.9,3.4,1.4c1.1,0.5,2.1,1.2,2.9,2
		c0.9,0.8,1.6,1.8,2.1,2.9C377.2,98.7,377.5,100.1,377.5,101.8L377.5,101.8z"/>
	<path fill="#1D1D1B" d="M410.9,74.5v3.8v2.1v4.6h-0.2H410h-2.3c-0.7,0-1.1-0.3-1.3-1c-0.1-0.4-0.2-1.6-0.4-3.5h-12.8v11h13.5v5.7
		h-13.5v11.3H406c0.2-1.9,0.3-3.1,0.4-3.5c0.1-0.7,0.6-1,1.3-1h2.3h0.7h0.2v4.6v2.1v3.9h-25.1h-4.2V111c0-1,0.5-1.5,1.4-1.7
		c0.1,0,0.2,0,0.3-0.1c0.1,0,0.4-0.1,0.8-0.1c0.4-0.1,0.9-0.2,1.6-0.3V79.9c-0.7-0.1-1.2-0.2-1.6-0.3c-0.4-0.1-0.7-0.1-0.8-0.1
		c-0.1,0-0.3,0-0.3-0.1c-0.9-0.2-1.4-0.8-1.4-1.7v-3.2h4.2H410.9L410.9,74.5z"/>
	<path fill="#1D1D1B" d="M456.5,74.5v3.2c0,1-0.5,1.5-1.4,1.7c-0.1,0-0.2,0-0.3,0.1c-0.2,0-0.4,0.1-0.8,0.1
		c-0.4,0.1-0.9,0.2-1.6,0.3v18.4c0,2.4-0.4,4.6-1.1,6.6c-0.8,2-1.9,3.7-3.3,5.2c-1.4,1.5-3.2,2.6-5.2,3.4c-2,0.8-4.3,1.2-6.9,1.2
		c-2.6,0-4.8-0.4-6.9-1.2c-2-0.8-3.8-2-5.2-3.4c-1.4-1.5-2.5-3.2-3.3-5.2c-0.8-2-1.1-4.2-1.1-6.6V79.9c-0.7-0.1-1.2-0.2-1.6-0.3
		c-0.4-0.1-0.7-0.1-0.8-0.1c-0.1,0-0.3,0-0.3-0.1c-0.9-0.2-1.4-0.8-1.4-1.7v-3.2h4.2h7.4h4.4v3.2c0,1-0.5,1.5-1.4,1.7
		c-0.1,0-0.2,0-0.4,0.1c-0.2,0-0.5,0.1-0.9,0.1c-0.4,0.1-1,0.2-1.7,0.3v18.4c0,1.5,0.2,2.9,0.6,4.1c0.4,1.2,1,2.3,1.8,3.2
		c0.8,0.9,1.7,1.5,2.8,2c1.1,0.5,2.4,0.7,3.8,0.7c1.4,0,2.7-0.2,3.8-0.7c1.1-0.5,2.1-1.1,2.9-2c0.8-0.9,1.4-1.9,1.8-3.1
		c0.4-1.2,0.6-2.6,0.6-4.1V79.9c-0.7-0.1-1.2-0.2-1.7-0.3c-0.4-0.1-0.8-0.1-0.9-0.1c-0.2,0-0.3,0-0.4-0.1c-0.9-0.2-1.4-0.8-1.4-1.7
		v-3.2h4.4h7.4H456.5L456.5,74.5z"/>
	<path fill="#1D1D1B" d="M510.3,79.5c-0.2,0-0.4,0.1-0.8,0.1c-0.4,0.1-0.9,0.2-1.6,0.3v28.9c0.7,0.1,1.2,0.2,1.6,0.3
		c0.4,0.1,0.7,0.1,0.8,0.1c0.2,0,0.3,0,0.3,0.1c0.9,0.2,1.4,0.8,1.4,1.7v3.2h-4.2h-6.5h-5V111c0-1,0.5-1.5,1.4-1.7
		c0.1,0,1.3-0.2,3.6-0.5V88.6c0-0.5,0-1,0-1.6c0-0.6,0.1-1.1,0.1-1.7l-12,22.6c-0.3,0.5-0.6,0.9-1.1,1.2c-0.4,0.3-1,0.4-1.5,0.4h-1
		c-0.6,0-1.1-0.1-1.5-0.4c-0.4-0.3-0.8-0.7-1.1-1.2l-12.2-22.7c0.1,0.6,0.1,1.2,0.2,1.8c0,0.6,0,1.1,0,1.6v20.3
		c2.3,0.3,3.5,0.5,3.6,0.5c0.9,0.2,1.4,0.8,1.4,1.7v3.2h-5h-6.5h-4.2V111c0-1,0.5-1.5,1.4-1.7c0.1,0,0.2,0,0.3-0.1
		c0.2,0,0.4-0.1,0.8-0.1c0.4-0.1,0.9-0.2,1.6-0.3V79.9c-0.7-0.1-1.2-0.2-1.6-0.3c-0.4-0.1-0.7-0.1-0.8-0.1c-0.1,0-0.3,0-0.3-0.1
		c-0.9-0.2-1.4-0.8-1.4-1.7v-3.2h4.2h5.6c0.3,0,0.6,0,0.9,0c0.2,0,0.5,0.1,0.6,0.1c0.2,0.1,0.4,0.2,0.5,0.4c0.2,0.2,0.3,0.4,0.5,0.7
		l11.9,22.1c0.3,0.6,0.6,1.2,0.9,1.8c0.3,0.6,0.5,1.3,0.8,1.9c0.3-0.7,0.5-1.3,0.8-2c0.3-0.6,0.6-1.3,0.9-1.8l11.8-22
		c0.1-0.3,0.3-0.5,0.5-0.7c0.2-0.2,0.3-0.3,0.5-0.4c0.2-0.1,0.4-0.1,0.6-0.1c0.2,0,0.5,0,0.9,0h5.6h4.2v3.2c0,1-0.5,1.5-1.4,1.7
		C510.6,79.4,510.5,79.5,510.3,79.5L510.3,79.5z"/>
	<path fill="#1D1D1B" d="M556.4,88.5c-0.6-1.7-1.4-3.2-2.5-4.4c-1.1-1.2-2.4-2.1-3.9-2.8c-1.5-0.6-3.3-1-5.2-1c-1.9,0-3.7,0.3-5.3,1
		c-1.6,0.6-2.9,1.6-4,2.8c-1.1,1.2-1.9,2.7-2.5,4.4c-0.6,1.7-0.9,3.7-0.9,5.9s0.3,4.1,0.9,5.9c0.6,1.7,1.4,3.2,2.5,4.4
		c1.1,1.2,2.4,2.1,4,2.8c1.6,0.6,3.3,1,5.3,1c1.9,0,3.7-0.3,5.2-1c1.6-0.6,2.9-1.6,3.9-2.8c1.1-1.2,1.9-2.7,2.5-4.4
		c0.6-1.7,0.9-3.7,0.9-5.9S557,90.2,556.4,88.5L556.4,88.5z M563.4,102.5c-1,2.5-2.3,4.6-4.1,6.5c-1.8,1.8-3.9,3.2-6.4,4.3
		c-2.5,1-5.2,1.5-8.2,1.5c-3,0-5.8-0.5-8.2-1.5c-2.5-1-4.6-2.4-6.4-4.3c-1.8-1.8-3.1-4-4.1-6.5c-1-2.5-1.5-5.2-1.5-8.1
		c0-2.9,0.5-5.6,1.5-8.1c1-2.5,2.3-4.6,4.1-6.5c1.8-1.8,3.9-3.2,6.4-4.3c2.5-1,5.2-1.5,8.2-1.5c3,0,5.8,0.5,8.2,1.5
		c2.5,1,4.6,2.4,6.4,4.3c1.8,1.8,3.1,4,4.1,6.4c1,2.5,1.5,5.2,1.5,8.1C564.9,97.3,564.4,100,563.4,102.5L563.4,102.5z"/>
	<path fill="#1D1D1B" d="M598.6,74.5v3.8v1.3v5.3h-0.2h-0.7h-2.3c-0.7,0-1.1-0.3-1.3-1c-0.1-0.4-0.2-1.6-0.4-3.5h-14.2v11.8h13.9V98
		h-13.9v10.8c0.7,0.1,1.2,0.2,1.6,0.3c0.4,0.1,0.7,0.1,0.8,0.1c0.1,0,0.3,0,0.3,0.1c0.9,0.2,1.4,0.8,1.4,1.7v3.2h-4.2h-7.5h-4.2V111
		c0-1,0.5-1.5,1.4-1.7c0.1,0,0.2,0,0.3-0.1c0.1,0,0.4-0.1,0.8-0.1c0.4-0.1,0.9-0.2,1.6-0.3V79.9c-0.7-0.1-1.2-0.2-1.6-0.3
		c-0.4-0.1-0.7-0.1-0.8-0.1c-0.2,0-0.3,0-0.3-0.1c-0.9-0.2-1.4-0.8-1.4-1.7v-3.2h4.2H596h1.3H598.6L598.6,74.5z"/>
	<path fill="#1D1D1B" d="M646.3,74.5v9.4H646h-0.7h-2.3c-0.7,0-1.1-0.3-1.3-1c-0.1-0.3-0.1-1.1-0.3-2.3h-8.1v28.3
		c0.7,0.1,1.2,0.2,1.6,0.3c0.4,0.1,0.7,0.1,0.8,0.1c0.1,0,0.3,0,0.3,0.1c0.9,0.2,1.4,0.8,1.4,1.7v3.2h-4.2H626h-4.2V111
		c0-1,0.5-1.5,1.4-1.7c0.1,0,0.2,0,0.3-0.1c0.2,0,0.4-0.1,0.8-0.1c0.4-0.1,0.9-0.2,1.6-0.3V80.5h-8.1c-0.1,1.2-0.2,2-0.3,2.3
		c-0.1,0.7-0.6,1-1.3,1h-2.3h-0.7h-0.2v-9.4h0.8h0.1h31.3h0H646.3L646.3,74.5z"/>
	<path fill="#1D1D1B" d="M690.6,79.5c-0.2,0-0.4,0.1-0.8,0.1c-0.4,0.1-0.9,0.2-1.6,0.3v28.9c0.7,0.1,1.2,0.2,1.6,0.3
		c0.4,0.1,0.7,0.1,0.8,0.1c0.1,0,0.3,0,0.3,0.1c0.9,0.2,1.4,0.8,1.4,1.7v3.2h-4.2h-7.5h-4.2V111c0-1,0.5-1.5,1.4-1.7
		c0.1,0,0.2,0,0.3-0.1c0.2,0,0.4-0.1,0.8-0.1c0.4-0.1,0.9-0.2,1.6-0.3V96.9h-18.7v11.9c0.7,0.1,1.2,0.2,1.6,0.3
		c0.4,0.1,0.7,0.1,0.8,0.1c0.1,0,0.3,0,0.3,0.1c0.9,0.2,1.4,0.8,1.4,1.7v3.2h-4.2h-7.5h-4.2V111c0-1,0.5-1.5,1.4-1.7
		c0.1,0,0.2,0,0.3-0.1c0.2,0,0.4-0.1,0.8-0.1c0.4-0.1,0.9-0.2,1.6-0.3V79.9c-0.7-0.1-1.2-0.2-1.6-0.3c-0.4-0.1-0.7-0.1-0.8-0.1
		c-0.1,0-0.3,0-0.3-0.1c-0.9-0.2-1.4-0.8-1.4-1.7v-3.2h4.2h7.5h4.2v3.2c0,1-0.5,1.5-1.4,1.7c-0.1,0-0.2,0-0.3,0.1
		c-0.1,0-0.4,0.1-0.8,0.1c-0.4,0.1-0.9,0.2-1.6,0.3v11.7h18.7V79.9c-0.7-0.1-1.2-0.2-1.6-0.3c-0.4-0.1-0.7-0.1-0.8-0.1
		c-0.1,0-0.3,0-0.3-0.1c-0.9-0.2-1.4-0.8-1.4-1.7v-3.2h4.2h7.5h4.2v3.2c0,1-0.5,1.5-1.4,1.7C690.9,79.4,690.8,79.5,690.6,79.5
		L690.6,79.5z"/>
	<path fill="#1D1D1B" d="M726,74.5v3.8v2.1v4.6h-0.2h-0.7h-2.3c-0.7,0-1.1-0.3-1.3-1c-0.1-0.4-0.2-1.6-0.4-3.5h-12.8v11h13.5v5.7
		h-13.5v11.3h12.8c0.2-1.9,0.3-3.1,0.4-3.5c0.1-0.7,0.6-1,1.3-1h2.3h0.7h0.2v4.6v2.1v3.9h-25.1h-4.2V111c0-1,0.5-1.5,1.4-1.7
		c0.1,0,0.2,0,0.3-0.1c0.1,0,0.4-0.1,0.8-0.1c0.4-0.1,0.9-0.2,1.6-0.3V79.9c-0.7-0.1-1.2-0.2-1.6-0.3c-0.4-0.1-0.7-0.1-0.8-0.1
		c-0.1,0-0.3,0-0.3-0.1c-0.9-0.2-1.4-0.8-1.4-1.7v-3.2h4.2H726L726,74.5z"/>
	<path fill="#1D1D1B" d="M276,124.9v3.4c0,1-0.5,1.6-1.5,1.8c-0.1,0-0.2,0-0.4,0.1c-0.2,0-0.4,0.1-0.9,0.2c-0.4,0.1-1,0.2-1.7,0.3
		v21.3c0,2.4-0.3,4.5-0.9,6.4c-0.6,1.9-1.4,3.5-2.6,4.8c-1.2,1.3-2.6,2.4-4.3,3.1c-1.7,0.7-3.7,1.1-6,1.1c-1,0-2.1-0.1-3.1-0.2
		c-1-0.1-2.1-0.3-3.2-0.6l0.4-4.6c0-0.4,0.2-0.8,0.5-1c0.3-0.3,0.7-0.4,1.2-0.4c0.3,0,0.8,0.1,1.3,0.2c0.5,0.1,1.2,0.2,2,0.2
		c1.1,0,2.1-0.2,2.9-0.5c0.9-0.3,1.6-0.8,2.1-1.5c0.6-0.7,1-1.6,1.3-2.7c0.3-1.1,0.4-2.5,0.4-4.1v-21.5c-0.7-0.1-1.3-0.2-1.9-0.3
		c-0.5-0.1-0.9-0.1-1.1-0.2c-0.2,0-0.4-0.1-0.5-0.1c-1-0.2-1.5-0.8-1.5-1.8v-3.4h4.9h7.8H276L276,124.9z"/>
	<path fill="#1D1D1B" d="M311.2,124.9v4v2.2v4.8h-0.2h-0.7h-2.4c-0.7,0-1.2-0.4-1.4-1.1c-0.1-0.5-0.2-1.7-0.4-3.7h-13.5v11.6h14.2v6
		h-14.2v11.9H306c0.2-2,0.3-3.3,0.4-3.7c0.2-0.7,0.6-1.1,1.4-1.1h2.4h0.7h0.2v4.8v2.2v4.1h-26.5h-4.4v-3.4c0-1,0.5-1.6,1.5-1.8
		c0.1,0,0.2,0,0.4-0.1c0.2,0,0.4-0.1,0.9-0.2c0.4-0.1,1-0.2,1.7-0.3v-30.5c-0.7-0.1-1.3-0.2-1.7-0.3c-0.4-0.1-0.7-0.1-0.9-0.2
		c-0.2,0-0.3-0.1-0.4-0.1c-1-0.2-1.5-0.8-1.5-1.8v-3.4h4.4L311.2,124.9L311.2,124.9z"/>
	<path fill="#1D1D1B" d="M378.7,124.9v3.4c0,1-0.5,1.6-1.5,1.8c0,0-0.3,0-0.6,0.1c-0.4,0.1-0.9,0.2-1.6,0.3l-11.3,36.4h-7.1
		l-9.2-28.7c-0.1-0.4-0.2-0.8-0.4-1.2c-0.1-0.4-0.2-0.9-0.4-1.4c-0.1,0.5-0.2,0.9-0.4,1.4c-0.1,0.5-0.3,0.8-0.4,1.2l-9.3,28.7h-7.1
		l-11.3-36.4c-0.7-0.1-1.3-0.2-1.7-0.3c-0.4-0.1-0.6-0.1-0.6-0.1c-1-0.2-1.5-0.8-1.5-1.8v-3.4h2h2.4h4.2h7.1v3.4
		c0,1-0.5,1.6-1.5,1.8c-0.1,0-0.2,0-0.3,0.1c-0.1,0-0.3,0.1-0.6,0.2c-0.3,0.1-0.6,0.2-1,0.2l6,21.2c0.2,0.6,0.3,1.3,0.5,2
		c0.1,0.7,0.3,1.5,0.4,2.3c0.2-0.8,0.3-1.6,0.5-2.3c0.2-0.7,0.4-1.4,0.6-2l8.2-25.1c0.2-0.4,0.5-0.9,0.9-1.2c0.5-0.4,1-0.6,1.7-0.6
		h2.3c0.7,0,1.2,0.2,1.7,0.5c0.4,0.3,0.8,0.7,0.9,1.3l8.2,25.1c0.4,1.2,0.8,2.6,1.1,4.1c0.1-0.7,0.3-1.5,0.4-2.2
		c0.1-0.7,0.3-1.3,0.5-1.9l6-21.1c-0.6-0.1-1.4-0.3-2.4-0.5c-1-0.2-1.5-0.8-1.5-1.8v-3.4h7.6h3.7h2.4H378.7L378.7,124.9z"/>
	<path fill="#1D1D1B" d="M413.9,124.9v4v2.2v4.8h-0.2h-0.7h-2.4c-0.7,0-1.2-0.4-1.4-1.1c-0.1-0.5-0.2-1.7-0.4-3.7h-13.5v11.6h14.2v6
		h-14.2v11.9h13.5c0.2-2,0.3-3.3,0.4-3.7c0.2-0.7,0.6-1.1,1.4-1.1h2.4h0.7h0.2v4.8v2.2v4.1h-26.5H383v-3.4c0-1,0.5-1.6,1.5-1.8
		c0.1,0,0.2,0,0.4-0.1c0.2,0,0.4-0.1,0.9-0.2c0.4-0.1,1-0.2,1.7-0.3v-30.5c-0.7-0.1-1.3-0.2-1.7-0.3c-0.4-0.1-0.7-0.1-0.9-0.2
		c-0.2,0-0.3-0.1-0.4-0.1c-1-0.2-1.5-0.8-1.5-1.8v-3.4h4.4L413.9,124.9L413.9,124.9z"/>
	<path fill="#1D1D1B" d="M449.1,156.8v5.9v1.1v3.1h-1.4h-0.2h-24.5h-4.4v-3.4c0-1,0.5-1.6,1.5-1.8c0.1,0,0.2,0,0.4-0.1
		c0.2,0,0.4-0.1,0.9-0.2c0.4-0.1,1-0.2,1.7-0.3v-30.5c-0.7-0.1-1.3-0.2-1.7-0.3c-0.4-0.1-0.7-0.1-0.9-0.2c-0.2,0-0.3-0.1-0.4-0.1
		c-1-0.2-1.5-0.8-1.5-1.8v-3.4h4.4h7.8h4.4v3.4c0,1-0.5,1.6-1.5,1.8c-0.1,0-0.2,0-0.4,0.1c-0.2,0-0.4,0.1-0.9,0.2
		c-0.4,0.1-1,0.2-1.7,0.3v29.8h13.5c0.1-1.5,0.2-2.3,0.2-2.5c0.2-0.7,0.6-1.1,1.4-1.1H449.1L449.1,156.8z"/>
	<path fill="#1D1D1B" d="M483.1,156.8v5.9v1.1v3.1h-1.4h-0.2h-24.5h-4.4v-3.4c0-1,0.5-1.6,1.5-1.8c0.1,0,0.2,0,0.4-0.1
		c0.2,0,0.4-0.1,0.9-0.2c0.4-0.1,1-0.2,1.7-0.3v-30.5c-0.7-0.1-1.3-0.2-1.7-0.3c-0.4-0.1-0.7-0.1-0.9-0.2c-0.2,0-0.3-0.1-0.4-0.1
		c-1-0.2-1.5-0.8-1.5-1.8v-3.4h4.4h7.8h4.4v3.4c0,1-0.5,1.6-1.5,1.8c-0.1,0-0.2,0-0.4,0.1c-0.2,0-0.5,0.1-0.9,0.2
		c-0.4,0.1-1,0.2-1.7,0.3v29.8h13.5c0.1-1.5,0.2-2.3,0.2-2.5c0.2-0.7,0.6-1.1,1.4-1.1H483.1L483.1,156.8z"/>
	<path fill="#1D1D1B" d="M517.6,124.9v4v2.2v4.8h-0.2h-0.7h-2.4c-0.7,0-1.2-0.4-1.4-1.1c-0.1-0.5-0.2-1.7-0.4-3.7H499v11.6h14.2v6
		H499v11.9h13.5c0.2-2,0.3-3.3,0.4-3.7c0.2-0.7,0.6-1.1,1.4-1.1h2.4h0.7h0.2v4.8v2.2v4.1h-26.5h-4.4v-3.4c0-1,0.5-1.6,1.5-1.8
		c0.1,0,0.2,0,0.4-0.1c0.2,0,0.4-0.1,0.9-0.2c0.4-0.1,1-0.2,1.7-0.3v-30.5c-0.7-0.1-1.3-0.2-1.7-0.3c-0.4-0.1-0.7-0.1-0.9-0.2
		c-0.2,0-0.3-0.1-0.4-0.1c-1-0.2-1.5-0.8-1.5-1.8v-3.4h4.4L517.6,124.9L517.6,124.9z"/>
	<path fill="#1D1D1B" d="M544.6,142.8c0.7-0.6,1.2-1.4,1.6-2.3c0.3-0.9,0.5-1.9,0.5-2.9c0-2.1-0.7-3.8-2.1-4.9
		c-1.4-1.1-3.5-1.7-6.4-1.7h-4.6v13.9h4.5c1.5,0,2.8-0.2,3.8-0.6C543,143.9,543.9,143.4,544.6,142.8L544.6,142.8z M559,163.4v3.4
		h-0.8h-3.6h-3.4c-0.7,0-1.3-0.1-1.7-0.4c-0.5-0.3-0.9-0.7-1.2-1.2l-8.8-13.4c-0.3-0.5-0.7-0.9-1.1-1.1c-0.4-0.2-1-0.3-1.8-0.3h-2.9
		v10.7c0.7,0.1,1.3,0.2,1.7,0.3c0.4,0.1,0.7,0.1,0.9,0.2c0.2,0,0.3,0.1,0.4,0.1c1,0.2,1.5,0.8,1.5,1.8v3.4h-4.4h-7.8h-4.4v-3.4
		c0-1,0.5-1.6,1.5-1.8c0.1,0,0.2,0,0.4-0.1c0.2,0,0.4-0.1,0.9-0.2c0.4-0.1,1-0.2,1.7-0.3v-30.5c-0.7-0.1-1.3-0.2-1.7-0.3
		c-0.4-0.1-0.7-0.1-0.9-0.2c-0.2,0-0.3-0.1-0.4-0.1c-1-0.2-1.5-0.8-1.5-1.8v-3.4h4.4h12.4c2.9,0,5.3,0.3,7.4,0.9
		c2,0.6,3.7,1.4,5,2.5c1.3,1.1,2.3,2.3,2.9,3.8c0.6,1.5,0.9,3.1,0.9,4.9c0,1.4-0.2,2.7-0.6,4c-0.4,1.3-1,2.4-1.8,3.4
		c-0.8,1-1.8,1.9-2.9,2.7c-1.1,0.8-2.5,1.4-3.9,1.9c1,0.6,1.8,1.4,2.6,2.4l6.6,9.8c0.7,0.1,1.3,0.2,1.8,0.3c0.5,0.1,0.8,0.1,1,0.2
		c0.2,0,0.4,0.1,0.4,0.1C558.5,161.8,559,162.4,559,163.4L559,163.4z"/>
	<path fill="#1D1D1B" d="M596.8,124.9v3.4c0,1-0.5,1.6-1.5,1.8c-0.1,0-0.2,0-0.4,0.1c-0.2,0-0.4,0.1-0.9,0.2c-0.4,0.1-1,0.2-1.7,0.3
		l-11.9,19.9v10.6c0.7,0.1,1.3,0.2,1.7,0.3c0.4,0.1,0.7,0.1,0.9,0.2c0.2,0,0.3,0.1,0.4,0.1c1,0.2,1.5,0.8,1.5,1.8v3.4h-4.4h-7.8
		h-4.4v-3.4c0-1,0.5-1.6,1.5-1.8c0.1,0,0.2,0,0.4-0.1c0.2,0,0.4-0.1,0.9-0.2c0.4-0.1,1-0.2,1.7-0.3v-10.6l-11.9-19.9
		c-0.7-0.1-1.3-0.2-1.7-0.3c-0.4-0.1-0.7-0.1-0.9-0.2c-0.2,0-0.3-0.1-0.4-0.1c-1-0.2-1.5-0.8-1.5-1.8v-3.4h1h1h2.4h3.4h7.8v3.4
		c0,1-0.5,1.6-1.5,1.8c-0.1,0-0.1,0-0.3,0.1c-0.1,0-0.3,0.1-0.6,0.1c-0.3,0.1-0.5,0.1-0.8,0.2l5.6,10.1c0.4,0.8,0.8,1.6,1.2,2.4
		c0.3,0.7,0.6,1.5,0.9,2.2c0.3-0.7,0.5-1.5,0.9-2.2c0.3-0.8,0.7-1.5,1.1-2.3l5.5-10.1c-0.3-0.1-0.6-0.1-0.8-0.2s-0.4-0.1-0.6-0.1
		c-0.1,0-0.2-0.1-0.3-0.1c-1-0.2-1.5-0.8-1.5-1.8v-3.4h7.8h3.5h2.4h1H596.8L596.8,124.9z"/>
	<path fill="#1D1D1B" d="M684.2,124.9v9.9h-0.2h-0.7h-2.4c-0.7,0-1.2-0.4-1.4-1.1c-0.1-0.3-0.2-1.2-0.3-2.4h-8.6v29.8
		c0.7,0.1,1.3,0.2,1.7,0.3c0.4,0.1,0.7,0.1,0.9,0.2c0.2,0,0.3,0.1,0.4,0.1c1,0.2,1.5,0.8,1.5,1.8v3.4h-4.4h-7.8h-4.4v-3.4
		c0-1,0.5-1.6,1.5-1.8c0.1,0,0.2,0,0.4-0.1c0.2,0,0.4-0.1,0.9-0.2c0.4-0.1,1-0.2,1.7-0.3v-29.8h-8.6c-0.1,1.3-0.2,2.1-0.3,2.4
		c-0.2,0.7-0.6,1.1-1.4,1.1l-2.4,0h-0.7h-0.2v-9.9h0.9h0.1h33h0L684.2,124.9L684.2,124.9z"/>
	<path fill="#1D1D1B" d="M711.8,142.8c0.7-0.6,1.2-1.4,1.6-2.3c0.3-0.9,0.5-1.9,0.5-2.9c0-2.1-0.7-3.8-2.1-4.9
		c-1.4-1.1-3.5-1.7-6.4-1.7h-4.6v13.9h4.5c1.5,0,2.8-0.2,3.8-0.6C710.2,143.9,711.1,143.4,711.8,142.8L711.8,142.8z M726.1,163.4
		v3.4h-0.8h-3.6h-3.4c-0.7,0-1.3-0.1-1.7-0.4c-0.5-0.3-0.9-0.7-1.2-1.2l-8.8-13.4c-0.3-0.5-0.7-0.9-1.1-1.1c-0.4-0.2-1-0.3-1.8-0.3
		h-2.9v10.7c0.7,0.1,1.3,0.2,1.7,0.3c0.4,0.1,0.7,0.1,0.9,0.2c0.2,0,0.3,0.1,0.4,0.1c1,0.2,1.5,0.8,1.5,1.8v3.4h-4.4H693h-4.4v-3.4
		c0-1,0.5-1.6,1.5-1.8c0.1,0,0.2,0,0.4-0.1c0.2,0,0.4-0.1,0.9-0.2c0.4-0.1,1-0.2,1.7-0.3v-30.5c-0.7-0.1-1.3-0.2-1.7-0.3
		c-0.4-0.1-0.7-0.1-0.9-0.2c-0.2,0-0.3-0.1-0.4-0.1c-1-0.2-1.5-0.8-1.5-1.8v-3.4h4.4h12.4c2.9,0,5.3,0.3,7.4,0.9
		c2,0.6,3.7,1.4,5,2.5c1.3,1.1,2.3,2.3,2.9,3.8c0.6,1.5,0.9,3.1,0.9,4.9c0,1.4-0.2,2.7-0.6,4c-0.4,1.3-1,2.4-1.8,3.4
		c-0.8,1-1.7,1.9-2.9,2.7c-1.2,0.8-2.5,1.4-3.9,1.9c1,0.6,1.8,1.4,2.6,2.4l6.6,9.8c0.7,0.1,1.3,0.2,1.8,0.3c0.5,0.1,0.8,0.1,1,0.2
		c0.2,0,0.4,0.1,0.4,0.1C725.7,161.8,726.1,162.4,726.1,163.4L726.1,163.4z"/>
	<path fill="#1D1D1B" d="M631.8,166.4L631.8,166.4L631.8,166.4c4.9,2.4,8.9,4.3,13.5,3l-2.6,4.8c-7.4,1.5-11.8-4.1-19.5-4.2
		c-2.1,0-4.9,1-6.3,2.3l-2.6-4c1.8-1.7,5.1-3.4,7.8-3.9l0-0.2"/>
	<path fill="#1D1D1B" d="M638.8,140.4c-0.6-1.8-1.5-3.4-2.6-4.7c-1.1-1.3-2.5-2.3-4.2-2.9c-1.6-0.7-3.5-1-5.5-1
		c-2.1,0-3.9,0.3-5.5,1c-1.6,0.7-3,1.7-4.2,2.9c-1.2,1.3-2,2.8-2.7,4.7c-0.6,1.8-0.9,3.9-0.9,6.2c0,2.3,0.3,4.4,0.9,6.2
		c0.6,1.8,1.5,3.4,2.7,4.6c1.2,1.3,2.6,2.2,4.2,2.9c1.6,0.7,3.5,1,5.5,1c2.1,0,3.9-0.3,5.5-1c1.6-0.7,3-1.7,4.2-2.9
		c1.1-1.3,2-2.8,2.6-4.6c0.6-1.8,0.9-3.9,0.9-6.2C639.7,144.3,639.4,142.2,638.8,140.4L638.8,140.4z M647.1,152
		c-0.4,1.7-0.9,3.3-1.7,4.8c-0.7,1.5-1.6,2.9-2.7,4.1c-5.9,7-16.7,8.9-25.1,5.5c-2.6-1.1-4.9-2.6-6.7-4.5c-1.9-1.9-3.3-4.2-4.3-6.8
		c-1-2.6-1.5-5.5-1.5-8.6c0-3.1,0.5-5.9,1.5-8.6c1-2.6,2.5-4.9,4.3-6.8c1.9-1.9,4.1-3.4,6.7-4.5c2.6-1.1,5.5-1.6,8.7-1.6
		c3.2,0,6.1,0.5,8.7,1.6c2.6,1.1,4.8,2.6,6.7,4.5c1.9,1.9,3.3,4.2,4.3,6.8c1,2.6,1.5,5.5,1.5,8.6C647.7,148.5,647.5,150.3,647.1,152
		L647.1,152z"/>
</g>
</svg>
